%TF.GenerationSoftware,KiCad,Pcbnew,(5.1.6-0-10_14)*%
%TF.CreationDate,2020-07-28T22:12:12-04:00*%
%TF.ProjectId,uRemote,7552656d-6f74-4652-9e6b-696361645f70,rev?*%
%TF.SameCoordinates,Original*%
%TF.FileFunction,Copper,L2,Inr*%
%TF.FilePolarity,Positive*%
%FSLAX46Y46*%
G04 Gerber Fmt 4.6, Leading zero omitted, Abs format (unit mm)*
G04 Created by KiCad (PCBNEW (5.1.6-0-10_14)) date 2020-07-28 22:12:12*
%MOMM*%
%LPD*%
G01*
G04 APERTURE LIST*
%TA.AperFunction,ViaPad*%
%ADD10C,3.000000*%
%TD*%
%TA.AperFunction,ViaPad*%
%ADD11R,3.000000X3.000000*%
%TD*%
%TA.AperFunction,ViaPad*%
%ADD12R,1.800000X1.800000*%
%TD*%
%TA.AperFunction,ViaPad*%
%ADD13C,1.800000*%
%TD*%
%TA.AperFunction,ViaPad*%
%ADD14R,1.700000X1.700000*%
%TD*%
%TA.AperFunction,ViaPad*%
%ADD15O,1.700000X1.700000*%
%TD*%
%TA.AperFunction,ViaPad*%
%ADD16C,2.000000*%
%TD*%
%TA.AperFunction,ViaPad*%
%ADD17R,2.000000X3.200000*%
%TD*%
%TA.AperFunction,ViaPad*%
%ADD18R,2.000000X2.000000*%
%TD*%
%TA.AperFunction,ViaPad*%
%ADD19C,4.400000*%
%TD*%
%TA.AperFunction,ViaPad*%
%ADD20C,0.700000*%
%TD*%
%TA.AperFunction,ViaPad*%
%ADD21C,0.750000*%
%TD*%
%TA.AperFunction,Conductor*%
%ADD22C,0.254000*%
%TD*%
G04 APERTURE END LIST*
D10*
%TO.N,GND*%
%TO.C,BT1*%
X60640000Y-56050000D03*
D11*
%TO.N,VCC*%
X40150000Y-56050000D03*
%TD*%
D12*
%TO.N,Net-(D5-Pad1)*%
%TO.C,D5*%
X45540000Y-23150000D03*
D13*
%TO.N,IRLED*%
X43000000Y-23150000D03*
%TD*%
D14*
%TO.N,VCC*%
%TO.C,BOOT0*%
X50000000Y-42540000D03*
D15*
%TO.N,Net-(JP1-Pad2)*%
X50000000Y-40000000D03*
%TO.N,GND*%
X50000000Y-37460000D03*
%TD*%
D16*
%TO.N,GND*%
%TO.C,SW1*%
X32228500Y-83710400D03*
%TO.N,Net-(R3-Pad1)*%
X37228500Y-83710400D03*
D17*
%TO.N,N/C*%
X29128500Y-76710400D03*
X40328500Y-76710400D03*
D16*
%TO.N,Net-(R6-Pad2)*%
X32228500Y-69210400D03*
%TO.N,GND*%
X34728500Y-69210400D03*
D18*
%TO.N,Net-(R5-Pad2)*%
X37228500Y-69210400D03*
%TD*%
D19*
%TO.N,N/C*%
%TO.C,H1*%
X23000000Y-23000000D03*
D20*
X24650000Y-23000000D03*
X24166726Y-24166726D03*
X23000000Y-24650000D03*
X21833274Y-24166726D03*
X21350000Y-23000000D03*
X21833274Y-21833274D03*
X23000000Y-21350000D03*
X24166726Y-21833274D03*
%TD*%
%TO.N,N/C*%
%TO.C,H2*%
X24166726Y-85833274D03*
X23000000Y-85350000D03*
X21833274Y-85833274D03*
X21350000Y-87000000D03*
X21833274Y-88166726D03*
X23000000Y-88650000D03*
X24166726Y-88166726D03*
X24650000Y-87000000D03*
D19*
X23000000Y-87000000D03*
%TD*%
%TO.N,N/C*%
%TO.C,H3*%
X67000000Y-23000000D03*
D20*
X68650000Y-23000000D03*
X68166726Y-24166726D03*
X67000000Y-24650000D03*
X65833274Y-24166726D03*
X65350000Y-23000000D03*
X65833274Y-21833274D03*
X67000000Y-21350000D03*
X68166726Y-21833274D03*
%TD*%
%TO.N,N/C*%
%TO.C,H4*%
X68166726Y-85833274D03*
X67000000Y-85350000D03*
X65833274Y-85833274D03*
X65350000Y-87000000D03*
X65833274Y-88166726D03*
X67000000Y-88650000D03*
X68166726Y-88166726D03*
X68650000Y-87000000D03*
D19*
X67000000Y-87000000D03*
%TD*%
D21*
%TO.N,GND*%
X28067000Y-28194000D03*
X35941000Y-28194000D03*
X35941000Y-22733000D03*
X28067000Y-22733000D03*
%TO.N,SWCLK*%
X64000000Y-36800000D03*
%TO.N,SWDIO*%
X63900000Y-31700000D03*
%TO.N,RST*%
X60900000Y-31700000D03*
%TO.N,Net-(C5-Pad1)*%
X32321500Y-38989000D03*
X29972000Y-38402500D03*
%TO.N,Net-(FB1-Pad1)*%
X35496500Y-30353000D03*
X28575000Y-30416500D03*
%TO.N,RST*%
X42200000Y-34700000D03*
%TO.N,ChanA*%
X39000000Y-34500000D03*
X36000000Y-56000000D03*
%TO.N,ChanB*%
X39000000Y-35500000D03*
X36000000Y-55000000D03*
%TO.N,Button*%
X36000000Y-57000000D03*
X39000000Y-33500000D03*
%TO.N,SWDIO*%
X42200000Y-35800000D03*
%TO.N,SWCLK*%
X43200000Y-36600000D03*
%TO.N,GND*%
X29972000Y-30099000D03*
X43942000Y-45021500D03*
X43942000Y-47307500D03*
X25971500Y-42926000D03*
X30289500Y-39624000D03*
X51250000Y-27617000D03*
X51250000Y-22410000D03*
X42164000Y-67500500D03*
X30226000Y-67437000D03*
X36385500Y-60452000D03*
X64038000Y-34260000D03*
X62831500Y-34260000D03*
X35242500Y-31686500D03*
X45339000Y-40957500D03*
X37173800Y-40042200D03*
X27749500Y-34353500D03*
X48768000Y-27622500D03*
%TO.N,VCC*%
X40640000Y-36195000D03*
X29019500Y-43497500D03*
X27114500Y-43561000D03*
X24257000Y-68072000D03*
X24257000Y-75438000D03*
X28194000Y-51625500D03*
%TD*%
D22*
%TO.N,VCC*%
G36*
X64797912Y-21192793D02*
G01*
X64487656Y-21657124D01*
X64273948Y-22173061D01*
X64165000Y-22720777D01*
X64165000Y-23279223D01*
X64273948Y-23826939D01*
X64487656Y-24342876D01*
X64797912Y-24807207D01*
X65192793Y-25202088D01*
X65657124Y-25512344D01*
X66173061Y-25726052D01*
X66720777Y-25835000D01*
X67279223Y-25835000D01*
X67826939Y-25726052D01*
X68342876Y-25512344D01*
X68807207Y-25202088D01*
X68873000Y-25136295D01*
X68873000Y-84863705D01*
X68807207Y-84797912D01*
X68342876Y-84487656D01*
X67826939Y-84273948D01*
X67279223Y-84165000D01*
X66720777Y-84165000D01*
X66173061Y-84273948D01*
X65657124Y-84487656D01*
X65192793Y-84797912D01*
X64797912Y-85192793D01*
X64487656Y-85657124D01*
X64273948Y-86173061D01*
X64165000Y-86720777D01*
X64165000Y-87279223D01*
X64273948Y-87826939D01*
X64487656Y-88342876D01*
X64797912Y-88807207D01*
X64863705Y-88873000D01*
X25136295Y-88873000D01*
X25202088Y-88807207D01*
X25512344Y-88342876D01*
X25726052Y-87826939D01*
X25835000Y-87279223D01*
X25835000Y-86720777D01*
X25726052Y-86173061D01*
X25512344Y-85657124D01*
X25202088Y-85192793D01*
X24807207Y-84797912D01*
X24342876Y-84487656D01*
X23826939Y-84273948D01*
X23279223Y-84165000D01*
X22720777Y-84165000D01*
X22173061Y-84273948D01*
X21657124Y-84487656D01*
X21192793Y-84797912D01*
X21127000Y-84863705D01*
X21127000Y-83549367D01*
X30593500Y-83549367D01*
X30593500Y-83871433D01*
X30656332Y-84187312D01*
X30779582Y-84484863D01*
X30958513Y-84752652D01*
X31186248Y-84980387D01*
X31454037Y-85159318D01*
X31751588Y-85282568D01*
X32067467Y-85345400D01*
X32389533Y-85345400D01*
X32705412Y-85282568D01*
X33002963Y-85159318D01*
X33270752Y-84980387D01*
X33498487Y-84752652D01*
X33677418Y-84484863D01*
X33800668Y-84187312D01*
X33863500Y-83871433D01*
X33863500Y-83549367D01*
X35593500Y-83549367D01*
X35593500Y-83871433D01*
X35656332Y-84187312D01*
X35779582Y-84484863D01*
X35958513Y-84752652D01*
X36186248Y-84980387D01*
X36454037Y-85159318D01*
X36751588Y-85282568D01*
X37067467Y-85345400D01*
X37389533Y-85345400D01*
X37705412Y-85282568D01*
X38002963Y-85159318D01*
X38270752Y-84980387D01*
X38498487Y-84752652D01*
X38677418Y-84484863D01*
X38800668Y-84187312D01*
X38863500Y-83871433D01*
X38863500Y-83549367D01*
X38800668Y-83233488D01*
X38677418Y-82935937D01*
X38498487Y-82668148D01*
X38270752Y-82440413D01*
X38002963Y-82261482D01*
X37705412Y-82138232D01*
X37389533Y-82075400D01*
X37067467Y-82075400D01*
X36751588Y-82138232D01*
X36454037Y-82261482D01*
X36186248Y-82440413D01*
X35958513Y-82668148D01*
X35779582Y-82935937D01*
X35656332Y-83233488D01*
X35593500Y-83549367D01*
X33863500Y-83549367D01*
X33800668Y-83233488D01*
X33677418Y-82935937D01*
X33498487Y-82668148D01*
X33270752Y-82440413D01*
X33002963Y-82261482D01*
X32705412Y-82138232D01*
X32389533Y-82075400D01*
X32067467Y-82075400D01*
X31751588Y-82138232D01*
X31454037Y-82261482D01*
X31186248Y-82440413D01*
X30958513Y-82668148D01*
X30779582Y-82935937D01*
X30656332Y-83233488D01*
X30593500Y-83549367D01*
X21127000Y-83549367D01*
X21127000Y-75110400D01*
X27490428Y-75110400D01*
X27490428Y-78310400D01*
X27502688Y-78434882D01*
X27538998Y-78554580D01*
X27597963Y-78664894D01*
X27677315Y-78761585D01*
X27774006Y-78840937D01*
X27884320Y-78899902D01*
X28004018Y-78936212D01*
X28128500Y-78948472D01*
X30128500Y-78948472D01*
X30252982Y-78936212D01*
X30372680Y-78899902D01*
X30482994Y-78840937D01*
X30579685Y-78761585D01*
X30659037Y-78664894D01*
X30718002Y-78554580D01*
X30754312Y-78434882D01*
X30766572Y-78310400D01*
X30766572Y-75110400D01*
X38690428Y-75110400D01*
X38690428Y-78310400D01*
X38702688Y-78434882D01*
X38738998Y-78554580D01*
X38797963Y-78664894D01*
X38877315Y-78761585D01*
X38974006Y-78840937D01*
X39084320Y-78899902D01*
X39204018Y-78936212D01*
X39328500Y-78948472D01*
X41328500Y-78948472D01*
X41452982Y-78936212D01*
X41572680Y-78899902D01*
X41682994Y-78840937D01*
X41779685Y-78761585D01*
X41859037Y-78664894D01*
X41918002Y-78554580D01*
X41954312Y-78434882D01*
X41966572Y-78310400D01*
X41966572Y-75110400D01*
X41954312Y-74985918D01*
X41918002Y-74866220D01*
X41859037Y-74755906D01*
X41779685Y-74659215D01*
X41682994Y-74579863D01*
X41572680Y-74520898D01*
X41452982Y-74484588D01*
X41328500Y-74472328D01*
X39328500Y-74472328D01*
X39204018Y-74484588D01*
X39084320Y-74520898D01*
X38974006Y-74579863D01*
X38877315Y-74659215D01*
X38797963Y-74755906D01*
X38738998Y-74866220D01*
X38702688Y-74985918D01*
X38690428Y-75110400D01*
X30766572Y-75110400D01*
X30754312Y-74985918D01*
X30718002Y-74866220D01*
X30659037Y-74755906D01*
X30579685Y-74659215D01*
X30482994Y-74579863D01*
X30372680Y-74520898D01*
X30252982Y-74484588D01*
X30128500Y-74472328D01*
X28128500Y-74472328D01*
X28004018Y-74484588D01*
X27884320Y-74520898D01*
X27774006Y-74579863D01*
X27677315Y-74659215D01*
X27597963Y-74755906D01*
X27538998Y-74866220D01*
X27502688Y-74985918D01*
X27490428Y-75110400D01*
X21127000Y-75110400D01*
X21127000Y-69049367D01*
X30593500Y-69049367D01*
X30593500Y-69371433D01*
X30656332Y-69687312D01*
X30779582Y-69984863D01*
X30958513Y-70252652D01*
X31186248Y-70480387D01*
X31454037Y-70659318D01*
X31751588Y-70782568D01*
X32067467Y-70845400D01*
X32389533Y-70845400D01*
X32705412Y-70782568D01*
X33002963Y-70659318D01*
X33270752Y-70480387D01*
X33478500Y-70272639D01*
X33686248Y-70480387D01*
X33954037Y-70659318D01*
X34251588Y-70782568D01*
X34567467Y-70845400D01*
X34889533Y-70845400D01*
X35205412Y-70782568D01*
X35502963Y-70659318D01*
X35683835Y-70538463D01*
X35697963Y-70564894D01*
X35777315Y-70661585D01*
X35874006Y-70740937D01*
X35984320Y-70799902D01*
X36104018Y-70836212D01*
X36228500Y-70848472D01*
X38228500Y-70848472D01*
X38352982Y-70836212D01*
X38472680Y-70799902D01*
X38582994Y-70740937D01*
X38679685Y-70661585D01*
X38759037Y-70564894D01*
X38818002Y-70454580D01*
X38854312Y-70334882D01*
X38866572Y-70210400D01*
X38866572Y-68210400D01*
X38854312Y-68085918D01*
X38818002Y-67966220D01*
X38759037Y-67855906D01*
X38679685Y-67759215D01*
X38582994Y-67679863D01*
X38472680Y-67620898D01*
X38352982Y-67584588D01*
X38228500Y-67572328D01*
X36228500Y-67572328D01*
X36104018Y-67584588D01*
X35984320Y-67620898D01*
X35874006Y-67679863D01*
X35777315Y-67759215D01*
X35697963Y-67855906D01*
X35683835Y-67882337D01*
X35502963Y-67761482D01*
X35205412Y-67638232D01*
X34889533Y-67575400D01*
X34567467Y-67575400D01*
X34251588Y-67638232D01*
X33954037Y-67761482D01*
X33686248Y-67940413D01*
X33478500Y-68148161D01*
X33270752Y-67940413D01*
X33002963Y-67761482D01*
X32705412Y-67638232D01*
X32389533Y-67575400D01*
X32067467Y-67575400D01*
X31751588Y-67638232D01*
X31454037Y-67761482D01*
X31186248Y-67940413D01*
X30958513Y-68168148D01*
X30779582Y-68435937D01*
X30656332Y-68733488D01*
X30593500Y-69049367D01*
X21127000Y-69049367D01*
X21127000Y-67337524D01*
X29216000Y-67337524D01*
X29216000Y-67536476D01*
X29254814Y-67731606D01*
X29330950Y-67915414D01*
X29441482Y-68080837D01*
X29582163Y-68221518D01*
X29747586Y-68332050D01*
X29931394Y-68408186D01*
X30126524Y-68447000D01*
X30325476Y-68447000D01*
X30520606Y-68408186D01*
X30704414Y-68332050D01*
X30869837Y-68221518D01*
X31010518Y-68080837D01*
X31121050Y-67915414D01*
X31197186Y-67731606D01*
X31236000Y-67536476D01*
X31236000Y-67401024D01*
X41154000Y-67401024D01*
X41154000Y-67599976D01*
X41192814Y-67795106D01*
X41268950Y-67978914D01*
X41379482Y-68144337D01*
X41520163Y-68285018D01*
X41685586Y-68395550D01*
X41869394Y-68471686D01*
X42064524Y-68510500D01*
X42263476Y-68510500D01*
X42458606Y-68471686D01*
X42642414Y-68395550D01*
X42807837Y-68285018D01*
X42948518Y-68144337D01*
X43059050Y-67978914D01*
X43135186Y-67795106D01*
X43174000Y-67599976D01*
X43174000Y-67401024D01*
X43135186Y-67205894D01*
X43059050Y-67022086D01*
X42948518Y-66856663D01*
X42807837Y-66715982D01*
X42642414Y-66605450D01*
X42458606Y-66529314D01*
X42263476Y-66490500D01*
X42064524Y-66490500D01*
X41869394Y-66529314D01*
X41685586Y-66605450D01*
X41520163Y-66715982D01*
X41379482Y-66856663D01*
X41268950Y-67022086D01*
X41192814Y-67205894D01*
X41154000Y-67401024D01*
X31236000Y-67401024D01*
X31236000Y-67337524D01*
X31197186Y-67142394D01*
X31121050Y-66958586D01*
X31010518Y-66793163D01*
X30869837Y-66652482D01*
X30704414Y-66541950D01*
X30520606Y-66465814D01*
X30325476Y-66427000D01*
X30126524Y-66427000D01*
X29931394Y-66465814D01*
X29747586Y-66541950D01*
X29582163Y-66652482D01*
X29441482Y-66793163D01*
X29330950Y-66958586D01*
X29254814Y-67142394D01*
X29216000Y-67337524D01*
X21127000Y-67337524D01*
X21127000Y-60352524D01*
X35375500Y-60352524D01*
X35375500Y-60551476D01*
X35414314Y-60746606D01*
X35490450Y-60930414D01*
X35600982Y-61095837D01*
X35741663Y-61236518D01*
X35907086Y-61347050D01*
X36090894Y-61423186D01*
X36286024Y-61462000D01*
X36484976Y-61462000D01*
X36680106Y-61423186D01*
X36863914Y-61347050D01*
X37029337Y-61236518D01*
X37170018Y-61095837D01*
X37280550Y-60930414D01*
X37356686Y-60746606D01*
X37395500Y-60551476D01*
X37395500Y-60352524D01*
X37356686Y-60157394D01*
X37280550Y-59973586D01*
X37170018Y-59808163D01*
X37029337Y-59667482D01*
X36863914Y-59556950D01*
X36680106Y-59480814D01*
X36484976Y-59442000D01*
X36286024Y-59442000D01*
X36090894Y-59480814D01*
X35907086Y-59556950D01*
X35741663Y-59667482D01*
X35600982Y-59808163D01*
X35490450Y-59973586D01*
X35414314Y-60157394D01*
X35375500Y-60352524D01*
X21127000Y-60352524D01*
X21127000Y-54900524D01*
X34990000Y-54900524D01*
X34990000Y-55099476D01*
X35028814Y-55294606D01*
X35104950Y-55478414D01*
X35119373Y-55500000D01*
X35104950Y-55521586D01*
X35028814Y-55705394D01*
X34990000Y-55900524D01*
X34990000Y-56099476D01*
X35028814Y-56294606D01*
X35104950Y-56478414D01*
X35119373Y-56500000D01*
X35104950Y-56521586D01*
X35028814Y-56705394D01*
X34990000Y-56900524D01*
X34990000Y-57099476D01*
X35028814Y-57294606D01*
X35104950Y-57478414D01*
X35215482Y-57643837D01*
X35356163Y-57784518D01*
X35521586Y-57895050D01*
X35705394Y-57971186D01*
X35900524Y-58010000D01*
X36099476Y-58010000D01*
X36294606Y-57971186D01*
X36478414Y-57895050D01*
X36643837Y-57784518D01*
X36784518Y-57643837D01*
X36847217Y-57550000D01*
X38011928Y-57550000D01*
X38024188Y-57674482D01*
X38060498Y-57794180D01*
X38119463Y-57904494D01*
X38198815Y-58001185D01*
X38295506Y-58080537D01*
X38405820Y-58139502D01*
X38525518Y-58175812D01*
X38650000Y-58188072D01*
X39864250Y-58185000D01*
X40023000Y-58026250D01*
X40023000Y-56177000D01*
X40277000Y-56177000D01*
X40277000Y-58026250D01*
X40435750Y-58185000D01*
X41650000Y-58188072D01*
X41774482Y-58175812D01*
X41894180Y-58139502D01*
X42004494Y-58080537D01*
X42101185Y-58001185D01*
X42180537Y-57904494D01*
X42239502Y-57794180D01*
X42275812Y-57674482D01*
X42288072Y-57550000D01*
X42285000Y-56335750D01*
X42126250Y-56177000D01*
X40277000Y-56177000D01*
X40023000Y-56177000D01*
X38173750Y-56177000D01*
X38015000Y-56335750D01*
X38011928Y-57550000D01*
X36847217Y-57550000D01*
X36895050Y-57478414D01*
X36971186Y-57294606D01*
X37010000Y-57099476D01*
X37010000Y-56900524D01*
X36971186Y-56705394D01*
X36895050Y-56521586D01*
X36880627Y-56500000D01*
X36895050Y-56478414D01*
X36971186Y-56294606D01*
X37010000Y-56099476D01*
X37010000Y-55900524D01*
X36971186Y-55705394D01*
X36895050Y-55521586D01*
X36880627Y-55500000D01*
X36895050Y-55478414D01*
X36971186Y-55294606D01*
X37010000Y-55099476D01*
X37010000Y-54900524D01*
X36971186Y-54705394D01*
X36906820Y-54550000D01*
X38011928Y-54550000D01*
X38015000Y-55764250D01*
X38173750Y-55923000D01*
X40023000Y-55923000D01*
X40023000Y-54073750D01*
X40277000Y-54073750D01*
X40277000Y-55923000D01*
X42126250Y-55923000D01*
X42209529Y-55839721D01*
X58505000Y-55839721D01*
X58505000Y-56260279D01*
X58587047Y-56672756D01*
X58747988Y-57061302D01*
X58981637Y-57410983D01*
X59279017Y-57708363D01*
X59628698Y-57942012D01*
X60017244Y-58102953D01*
X60429721Y-58185000D01*
X60850279Y-58185000D01*
X61262756Y-58102953D01*
X61651302Y-57942012D01*
X62000983Y-57708363D01*
X62298363Y-57410983D01*
X62532012Y-57061302D01*
X62692953Y-56672756D01*
X62775000Y-56260279D01*
X62775000Y-55839721D01*
X62692953Y-55427244D01*
X62532012Y-55038698D01*
X62298363Y-54689017D01*
X62000983Y-54391637D01*
X61651302Y-54157988D01*
X61262756Y-53997047D01*
X60850279Y-53915000D01*
X60429721Y-53915000D01*
X60017244Y-53997047D01*
X59628698Y-54157988D01*
X59279017Y-54391637D01*
X58981637Y-54689017D01*
X58747988Y-55038698D01*
X58587047Y-55427244D01*
X58505000Y-55839721D01*
X42209529Y-55839721D01*
X42285000Y-55764250D01*
X42288072Y-54550000D01*
X42275812Y-54425518D01*
X42239502Y-54305820D01*
X42180537Y-54195506D01*
X42101185Y-54098815D01*
X42004494Y-54019463D01*
X41894180Y-53960498D01*
X41774482Y-53924188D01*
X41650000Y-53911928D01*
X40435750Y-53915000D01*
X40277000Y-54073750D01*
X40023000Y-54073750D01*
X39864250Y-53915000D01*
X38650000Y-53911928D01*
X38525518Y-53924188D01*
X38405820Y-53960498D01*
X38295506Y-54019463D01*
X38198815Y-54098815D01*
X38119463Y-54195506D01*
X38060498Y-54305820D01*
X38024188Y-54425518D01*
X38011928Y-54550000D01*
X36906820Y-54550000D01*
X36895050Y-54521586D01*
X36784518Y-54356163D01*
X36643837Y-54215482D01*
X36478414Y-54104950D01*
X36294606Y-54028814D01*
X36099476Y-53990000D01*
X35900524Y-53990000D01*
X35705394Y-54028814D01*
X35521586Y-54104950D01*
X35356163Y-54215482D01*
X35215482Y-54356163D01*
X35104950Y-54521586D01*
X35028814Y-54705394D01*
X34990000Y-54900524D01*
X21127000Y-54900524D01*
X21127000Y-47208024D01*
X42932000Y-47208024D01*
X42932000Y-47406976D01*
X42970814Y-47602106D01*
X43046950Y-47785914D01*
X43157482Y-47951337D01*
X43298163Y-48092018D01*
X43463586Y-48202550D01*
X43647394Y-48278686D01*
X43842524Y-48317500D01*
X44041476Y-48317500D01*
X44236606Y-48278686D01*
X44420414Y-48202550D01*
X44585837Y-48092018D01*
X44726518Y-47951337D01*
X44837050Y-47785914D01*
X44913186Y-47602106D01*
X44952000Y-47406976D01*
X44952000Y-47208024D01*
X44913186Y-47012894D01*
X44837050Y-46829086D01*
X44726518Y-46663663D01*
X44585837Y-46522982D01*
X44420414Y-46412450D01*
X44236606Y-46336314D01*
X44041476Y-46297500D01*
X43842524Y-46297500D01*
X43647394Y-46336314D01*
X43463586Y-46412450D01*
X43298163Y-46522982D01*
X43157482Y-46663663D01*
X43046950Y-46829086D01*
X42970814Y-47012894D01*
X42932000Y-47208024D01*
X21127000Y-47208024D01*
X21127000Y-44922024D01*
X42932000Y-44922024D01*
X42932000Y-45120976D01*
X42970814Y-45316106D01*
X43046950Y-45499914D01*
X43157482Y-45665337D01*
X43298163Y-45806018D01*
X43463586Y-45916550D01*
X43647394Y-45992686D01*
X43842524Y-46031500D01*
X44041476Y-46031500D01*
X44236606Y-45992686D01*
X44420414Y-45916550D01*
X44585837Y-45806018D01*
X44726518Y-45665337D01*
X44837050Y-45499914D01*
X44913186Y-45316106D01*
X44952000Y-45120976D01*
X44952000Y-44922024D01*
X44913186Y-44726894D01*
X44837050Y-44543086D01*
X44726518Y-44377663D01*
X44585837Y-44236982D01*
X44420414Y-44126450D01*
X44236606Y-44050314D01*
X44041476Y-44011500D01*
X43842524Y-44011500D01*
X43647394Y-44050314D01*
X43463586Y-44126450D01*
X43298163Y-44236982D01*
X43157482Y-44377663D01*
X43046950Y-44543086D01*
X42970814Y-44726894D01*
X42932000Y-44922024D01*
X21127000Y-44922024D01*
X21127000Y-42826524D01*
X24961500Y-42826524D01*
X24961500Y-43025476D01*
X25000314Y-43220606D01*
X25076450Y-43404414D01*
X25186982Y-43569837D01*
X25327663Y-43710518D01*
X25493086Y-43821050D01*
X25676894Y-43897186D01*
X25872024Y-43936000D01*
X26070976Y-43936000D01*
X26266106Y-43897186D01*
X26449914Y-43821050D01*
X26615337Y-43710518D01*
X26756018Y-43569837D01*
X26866550Y-43404414D01*
X26872520Y-43390000D01*
X48511928Y-43390000D01*
X48524188Y-43514482D01*
X48560498Y-43634180D01*
X48619463Y-43744494D01*
X48698815Y-43841185D01*
X48795506Y-43920537D01*
X48905820Y-43979502D01*
X49025518Y-44015812D01*
X49150000Y-44028072D01*
X49714250Y-44025000D01*
X49873000Y-43866250D01*
X49873000Y-42667000D01*
X50127000Y-42667000D01*
X50127000Y-43866250D01*
X50285750Y-44025000D01*
X50850000Y-44028072D01*
X50974482Y-44015812D01*
X51094180Y-43979502D01*
X51204494Y-43920537D01*
X51301185Y-43841185D01*
X51380537Y-43744494D01*
X51439502Y-43634180D01*
X51475812Y-43514482D01*
X51488072Y-43390000D01*
X51485000Y-42825750D01*
X51326250Y-42667000D01*
X50127000Y-42667000D01*
X49873000Y-42667000D01*
X48673750Y-42667000D01*
X48515000Y-42825750D01*
X48511928Y-43390000D01*
X26872520Y-43390000D01*
X26942686Y-43220606D01*
X26981500Y-43025476D01*
X26981500Y-42826524D01*
X26942686Y-42631394D01*
X26866550Y-42447586D01*
X26756018Y-42282163D01*
X26615337Y-42141482D01*
X26449914Y-42030950D01*
X26266106Y-41954814D01*
X26070976Y-41916000D01*
X25872024Y-41916000D01*
X25676894Y-41954814D01*
X25493086Y-42030950D01*
X25327663Y-42141482D01*
X25186982Y-42282163D01*
X25076450Y-42447586D01*
X25000314Y-42631394D01*
X24961500Y-42826524D01*
X21127000Y-42826524D01*
X21127000Y-38303024D01*
X28962000Y-38303024D01*
X28962000Y-38501976D01*
X29000814Y-38697106D01*
X29076950Y-38880914D01*
X29187482Y-39046337D01*
X29328163Y-39187018D01*
X29366639Y-39212727D01*
X29318314Y-39329394D01*
X29279500Y-39524524D01*
X29279500Y-39723476D01*
X29318314Y-39918606D01*
X29394450Y-40102414D01*
X29504982Y-40267837D01*
X29645663Y-40408518D01*
X29811086Y-40519050D01*
X29994894Y-40595186D01*
X30190024Y-40634000D01*
X30388976Y-40634000D01*
X30584106Y-40595186D01*
X30767914Y-40519050D01*
X30933337Y-40408518D01*
X31074018Y-40267837D01*
X31184550Y-40102414D01*
X31260686Y-39918606D01*
X31299500Y-39723476D01*
X31299500Y-39524524D01*
X31260686Y-39329394D01*
X31184550Y-39145586D01*
X31074018Y-38980163D01*
X30983379Y-38889524D01*
X31311500Y-38889524D01*
X31311500Y-39088476D01*
X31350314Y-39283606D01*
X31426450Y-39467414D01*
X31536982Y-39632837D01*
X31677663Y-39773518D01*
X31843086Y-39884050D01*
X32026894Y-39960186D01*
X32222024Y-39999000D01*
X32420976Y-39999000D01*
X32616106Y-39960186D01*
X32658262Y-39942724D01*
X36163800Y-39942724D01*
X36163800Y-40141676D01*
X36202614Y-40336806D01*
X36278750Y-40520614D01*
X36389282Y-40686037D01*
X36529963Y-40826718D01*
X36695386Y-40937250D01*
X36879194Y-41013386D01*
X37074324Y-41052200D01*
X37273276Y-41052200D01*
X37468406Y-41013386D01*
X37652214Y-40937250D01*
X37770784Y-40858024D01*
X44329000Y-40858024D01*
X44329000Y-41056976D01*
X44367814Y-41252106D01*
X44443950Y-41435914D01*
X44554482Y-41601337D01*
X44695163Y-41742018D01*
X44860586Y-41852550D01*
X45044394Y-41928686D01*
X45239524Y-41967500D01*
X45438476Y-41967500D01*
X45633606Y-41928686D01*
X45817414Y-41852550D01*
X45982837Y-41742018D01*
X46034855Y-41690000D01*
X48511928Y-41690000D01*
X48515000Y-42254250D01*
X48673750Y-42413000D01*
X49873000Y-42413000D01*
X49873000Y-42393000D01*
X50127000Y-42393000D01*
X50127000Y-42413000D01*
X51326250Y-42413000D01*
X51485000Y-42254250D01*
X51488072Y-41690000D01*
X51475812Y-41565518D01*
X51439502Y-41445820D01*
X51380537Y-41335506D01*
X51301185Y-41238815D01*
X51204494Y-41159463D01*
X51094180Y-41100498D01*
X51021620Y-41078487D01*
X51153475Y-40946632D01*
X51315990Y-40703411D01*
X51427932Y-40433158D01*
X51485000Y-40146260D01*
X51485000Y-39853740D01*
X51427932Y-39566842D01*
X51315990Y-39296589D01*
X51153475Y-39053368D01*
X50946632Y-38846525D01*
X50772240Y-38730000D01*
X50946632Y-38613475D01*
X51153475Y-38406632D01*
X51315990Y-38163411D01*
X51427932Y-37893158D01*
X51485000Y-37606260D01*
X51485000Y-37313740D01*
X51427932Y-37026842D01*
X51315990Y-36756589D01*
X51278529Y-36700524D01*
X62990000Y-36700524D01*
X62990000Y-36899476D01*
X63028814Y-37094606D01*
X63104950Y-37278414D01*
X63215482Y-37443837D01*
X63356163Y-37584518D01*
X63521586Y-37695050D01*
X63705394Y-37771186D01*
X63900524Y-37810000D01*
X64099476Y-37810000D01*
X64294606Y-37771186D01*
X64478414Y-37695050D01*
X64643837Y-37584518D01*
X64784518Y-37443837D01*
X64895050Y-37278414D01*
X64971186Y-37094606D01*
X65010000Y-36899476D01*
X65010000Y-36700524D01*
X64971186Y-36505394D01*
X64895050Y-36321586D01*
X64784518Y-36156163D01*
X64643837Y-36015482D01*
X64478414Y-35904950D01*
X64294606Y-35828814D01*
X64099476Y-35790000D01*
X63900524Y-35790000D01*
X63705394Y-35828814D01*
X63521586Y-35904950D01*
X63356163Y-36015482D01*
X63215482Y-36156163D01*
X63104950Y-36321586D01*
X63028814Y-36505394D01*
X62990000Y-36700524D01*
X51278529Y-36700524D01*
X51153475Y-36513368D01*
X50946632Y-36306525D01*
X50703411Y-36144010D01*
X50433158Y-36032068D01*
X50146260Y-35975000D01*
X49853740Y-35975000D01*
X49566842Y-36032068D01*
X49296589Y-36144010D01*
X49053368Y-36306525D01*
X48846525Y-36513368D01*
X48684010Y-36756589D01*
X48572068Y-37026842D01*
X48515000Y-37313740D01*
X48515000Y-37606260D01*
X48572068Y-37893158D01*
X48684010Y-38163411D01*
X48846525Y-38406632D01*
X49053368Y-38613475D01*
X49227760Y-38730000D01*
X49053368Y-38846525D01*
X48846525Y-39053368D01*
X48684010Y-39296589D01*
X48572068Y-39566842D01*
X48515000Y-39853740D01*
X48515000Y-40146260D01*
X48572068Y-40433158D01*
X48684010Y-40703411D01*
X48846525Y-40946632D01*
X48978380Y-41078487D01*
X48905820Y-41100498D01*
X48795506Y-41159463D01*
X48698815Y-41238815D01*
X48619463Y-41335506D01*
X48560498Y-41445820D01*
X48524188Y-41565518D01*
X48511928Y-41690000D01*
X46034855Y-41690000D01*
X46123518Y-41601337D01*
X46234050Y-41435914D01*
X46310186Y-41252106D01*
X46349000Y-41056976D01*
X46349000Y-40858024D01*
X46310186Y-40662894D01*
X46234050Y-40479086D01*
X46123518Y-40313663D01*
X45982837Y-40172982D01*
X45817414Y-40062450D01*
X45633606Y-39986314D01*
X45438476Y-39947500D01*
X45239524Y-39947500D01*
X45044394Y-39986314D01*
X44860586Y-40062450D01*
X44695163Y-40172982D01*
X44554482Y-40313663D01*
X44443950Y-40479086D01*
X44367814Y-40662894D01*
X44329000Y-40858024D01*
X37770784Y-40858024D01*
X37817637Y-40826718D01*
X37958318Y-40686037D01*
X38068850Y-40520614D01*
X38144986Y-40336806D01*
X38183800Y-40141676D01*
X38183800Y-39942724D01*
X38144986Y-39747594D01*
X38068850Y-39563786D01*
X37958318Y-39398363D01*
X37817637Y-39257682D01*
X37652214Y-39147150D01*
X37468406Y-39071014D01*
X37273276Y-39032200D01*
X37074324Y-39032200D01*
X36879194Y-39071014D01*
X36695386Y-39147150D01*
X36529963Y-39257682D01*
X36389282Y-39398363D01*
X36278750Y-39563786D01*
X36202614Y-39747594D01*
X36163800Y-39942724D01*
X32658262Y-39942724D01*
X32799914Y-39884050D01*
X32965337Y-39773518D01*
X33106018Y-39632837D01*
X33216550Y-39467414D01*
X33292686Y-39283606D01*
X33331500Y-39088476D01*
X33331500Y-38889524D01*
X33292686Y-38694394D01*
X33216550Y-38510586D01*
X33106018Y-38345163D01*
X32965337Y-38204482D01*
X32799914Y-38093950D01*
X32616106Y-38017814D01*
X32420976Y-37979000D01*
X32222024Y-37979000D01*
X32026894Y-38017814D01*
X31843086Y-38093950D01*
X31677663Y-38204482D01*
X31536982Y-38345163D01*
X31426450Y-38510586D01*
X31350314Y-38694394D01*
X31311500Y-38889524D01*
X30983379Y-38889524D01*
X30933337Y-38839482D01*
X30894861Y-38813773D01*
X30943186Y-38697106D01*
X30982000Y-38501976D01*
X30982000Y-38303024D01*
X30943186Y-38107894D01*
X30867050Y-37924086D01*
X30756518Y-37758663D01*
X30615837Y-37617982D01*
X30450414Y-37507450D01*
X30266606Y-37431314D01*
X30071476Y-37392500D01*
X29872524Y-37392500D01*
X29677394Y-37431314D01*
X29493586Y-37507450D01*
X29328163Y-37617982D01*
X29187482Y-37758663D01*
X29076950Y-37924086D01*
X29000814Y-38107894D01*
X28962000Y-38303024D01*
X21127000Y-38303024D01*
X21127000Y-34254024D01*
X26739500Y-34254024D01*
X26739500Y-34452976D01*
X26778314Y-34648106D01*
X26854450Y-34831914D01*
X26964982Y-34997337D01*
X27105663Y-35138018D01*
X27271086Y-35248550D01*
X27454894Y-35324686D01*
X27650024Y-35363500D01*
X27848976Y-35363500D01*
X28044106Y-35324686D01*
X28227914Y-35248550D01*
X28393337Y-35138018D01*
X28534018Y-34997337D01*
X28644550Y-34831914D01*
X28720686Y-34648106D01*
X28759500Y-34452976D01*
X28759500Y-34254024D01*
X28720686Y-34058894D01*
X28644550Y-33875086D01*
X28534018Y-33709663D01*
X28393337Y-33568982D01*
X28227914Y-33458450D01*
X28088069Y-33400524D01*
X37990000Y-33400524D01*
X37990000Y-33599476D01*
X38028814Y-33794606D01*
X38104950Y-33978414D01*
X38119373Y-34000000D01*
X38104950Y-34021586D01*
X38028814Y-34205394D01*
X37990000Y-34400524D01*
X37990000Y-34599476D01*
X38028814Y-34794606D01*
X38104950Y-34978414D01*
X38119373Y-35000000D01*
X38104950Y-35021586D01*
X38028814Y-35205394D01*
X37990000Y-35400524D01*
X37990000Y-35599476D01*
X38028814Y-35794606D01*
X38104950Y-35978414D01*
X38215482Y-36143837D01*
X38356163Y-36284518D01*
X38521586Y-36395050D01*
X38705394Y-36471186D01*
X38900524Y-36510000D01*
X39099476Y-36510000D01*
X39294606Y-36471186D01*
X39478414Y-36395050D01*
X39643837Y-36284518D01*
X39784518Y-36143837D01*
X39895050Y-35978414D01*
X39971186Y-35794606D01*
X40010000Y-35599476D01*
X40010000Y-35400524D01*
X39971186Y-35205394D01*
X39895050Y-35021586D01*
X39880627Y-35000000D01*
X39895050Y-34978414D01*
X39971186Y-34794606D01*
X40009791Y-34600524D01*
X41190000Y-34600524D01*
X41190000Y-34799476D01*
X41228814Y-34994606D01*
X41304950Y-35178414D01*
X41352782Y-35250000D01*
X41304950Y-35321586D01*
X41228814Y-35505394D01*
X41190000Y-35700524D01*
X41190000Y-35899476D01*
X41228814Y-36094606D01*
X41304950Y-36278414D01*
X41415482Y-36443837D01*
X41556163Y-36584518D01*
X41721586Y-36695050D01*
X41905394Y-36771186D01*
X42100524Y-36810000D01*
X42211985Y-36810000D01*
X42228814Y-36894606D01*
X42304950Y-37078414D01*
X42415482Y-37243837D01*
X42556163Y-37384518D01*
X42721586Y-37495050D01*
X42905394Y-37571186D01*
X43100524Y-37610000D01*
X43299476Y-37610000D01*
X43494606Y-37571186D01*
X43678414Y-37495050D01*
X43843837Y-37384518D01*
X43984518Y-37243837D01*
X44095050Y-37078414D01*
X44171186Y-36894606D01*
X44210000Y-36699476D01*
X44210000Y-36500524D01*
X44171186Y-36305394D01*
X44095050Y-36121586D01*
X43984518Y-35956163D01*
X43843837Y-35815482D01*
X43678414Y-35704950D01*
X43494606Y-35628814D01*
X43299476Y-35590000D01*
X43188015Y-35590000D01*
X43171186Y-35505394D01*
X43095050Y-35321586D01*
X43047218Y-35250000D01*
X43095050Y-35178414D01*
X43171186Y-34994606D01*
X43210000Y-34799476D01*
X43210000Y-34600524D01*
X43171186Y-34405394D01*
X43095050Y-34221586D01*
X43054250Y-34160524D01*
X61821500Y-34160524D01*
X61821500Y-34359476D01*
X61860314Y-34554606D01*
X61936450Y-34738414D01*
X62046982Y-34903837D01*
X62187663Y-35044518D01*
X62353086Y-35155050D01*
X62536894Y-35231186D01*
X62732024Y-35270000D01*
X62930976Y-35270000D01*
X63126106Y-35231186D01*
X63309914Y-35155050D01*
X63434750Y-35071637D01*
X63559586Y-35155050D01*
X63743394Y-35231186D01*
X63938524Y-35270000D01*
X64137476Y-35270000D01*
X64332606Y-35231186D01*
X64516414Y-35155050D01*
X64681837Y-35044518D01*
X64822518Y-34903837D01*
X64933050Y-34738414D01*
X65009186Y-34554606D01*
X65048000Y-34359476D01*
X65048000Y-34160524D01*
X65009186Y-33965394D01*
X64933050Y-33781586D01*
X64822518Y-33616163D01*
X64681837Y-33475482D01*
X64516414Y-33364950D01*
X64332606Y-33288814D01*
X64137476Y-33250000D01*
X63938524Y-33250000D01*
X63743394Y-33288814D01*
X63559586Y-33364950D01*
X63434750Y-33448363D01*
X63309914Y-33364950D01*
X63126106Y-33288814D01*
X62930976Y-33250000D01*
X62732024Y-33250000D01*
X62536894Y-33288814D01*
X62353086Y-33364950D01*
X62187663Y-33475482D01*
X62046982Y-33616163D01*
X61936450Y-33781586D01*
X61860314Y-33965394D01*
X61821500Y-34160524D01*
X43054250Y-34160524D01*
X42984518Y-34056163D01*
X42843837Y-33915482D01*
X42678414Y-33804950D01*
X42494606Y-33728814D01*
X42299476Y-33690000D01*
X42100524Y-33690000D01*
X41905394Y-33728814D01*
X41721586Y-33804950D01*
X41556163Y-33915482D01*
X41415482Y-34056163D01*
X41304950Y-34221586D01*
X41228814Y-34405394D01*
X41190000Y-34600524D01*
X40009791Y-34600524D01*
X40010000Y-34599476D01*
X40010000Y-34400524D01*
X39971186Y-34205394D01*
X39895050Y-34021586D01*
X39880627Y-34000000D01*
X39895050Y-33978414D01*
X39971186Y-33794606D01*
X40010000Y-33599476D01*
X40010000Y-33400524D01*
X39971186Y-33205394D01*
X39895050Y-33021586D01*
X39784518Y-32856163D01*
X39643837Y-32715482D01*
X39478414Y-32604950D01*
X39294606Y-32528814D01*
X39099476Y-32490000D01*
X38900524Y-32490000D01*
X38705394Y-32528814D01*
X38521586Y-32604950D01*
X38356163Y-32715482D01*
X38215482Y-32856163D01*
X38104950Y-33021586D01*
X38028814Y-33205394D01*
X37990000Y-33400524D01*
X28088069Y-33400524D01*
X28044106Y-33382314D01*
X27848976Y-33343500D01*
X27650024Y-33343500D01*
X27454894Y-33382314D01*
X27271086Y-33458450D01*
X27105663Y-33568982D01*
X26964982Y-33709663D01*
X26854450Y-33875086D01*
X26778314Y-34058894D01*
X26739500Y-34254024D01*
X21127000Y-34254024D01*
X21127000Y-31587024D01*
X34232500Y-31587024D01*
X34232500Y-31785976D01*
X34271314Y-31981106D01*
X34347450Y-32164914D01*
X34457982Y-32330337D01*
X34598663Y-32471018D01*
X34764086Y-32581550D01*
X34947894Y-32657686D01*
X35143024Y-32696500D01*
X35341976Y-32696500D01*
X35537106Y-32657686D01*
X35720914Y-32581550D01*
X35886337Y-32471018D01*
X36027018Y-32330337D01*
X36137550Y-32164914D01*
X36213686Y-31981106D01*
X36252500Y-31785976D01*
X36252500Y-31600524D01*
X59890000Y-31600524D01*
X59890000Y-31799476D01*
X59928814Y-31994606D01*
X60004950Y-32178414D01*
X60115482Y-32343837D01*
X60256163Y-32484518D01*
X60421586Y-32595050D01*
X60605394Y-32671186D01*
X60800524Y-32710000D01*
X60999476Y-32710000D01*
X61194606Y-32671186D01*
X61378414Y-32595050D01*
X61543837Y-32484518D01*
X61684518Y-32343837D01*
X61795050Y-32178414D01*
X61871186Y-31994606D01*
X61910000Y-31799476D01*
X61910000Y-31600524D01*
X62890000Y-31600524D01*
X62890000Y-31799476D01*
X62928814Y-31994606D01*
X63004950Y-32178414D01*
X63115482Y-32343837D01*
X63256163Y-32484518D01*
X63421586Y-32595050D01*
X63605394Y-32671186D01*
X63800524Y-32710000D01*
X63999476Y-32710000D01*
X64194606Y-32671186D01*
X64378414Y-32595050D01*
X64543837Y-32484518D01*
X64684518Y-32343837D01*
X64795050Y-32178414D01*
X64871186Y-31994606D01*
X64910000Y-31799476D01*
X64910000Y-31600524D01*
X64871186Y-31405394D01*
X64795050Y-31221586D01*
X64684518Y-31056163D01*
X64543837Y-30915482D01*
X64378414Y-30804950D01*
X64194606Y-30728814D01*
X63999476Y-30690000D01*
X63800524Y-30690000D01*
X63605394Y-30728814D01*
X63421586Y-30804950D01*
X63256163Y-30915482D01*
X63115482Y-31056163D01*
X63004950Y-31221586D01*
X62928814Y-31405394D01*
X62890000Y-31600524D01*
X61910000Y-31600524D01*
X61871186Y-31405394D01*
X61795050Y-31221586D01*
X61684518Y-31056163D01*
X61543837Y-30915482D01*
X61378414Y-30804950D01*
X61194606Y-30728814D01*
X60999476Y-30690000D01*
X60800524Y-30690000D01*
X60605394Y-30728814D01*
X60421586Y-30804950D01*
X60256163Y-30915482D01*
X60115482Y-31056163D01*
X60004950Y-31221586D01*
X59928814Y-31405394D01*
X59890000Y-31600524D01*
X36252500Y-31600524D01*
X36252500Y-31587024D01*
X36213686Y-31391894D01*
X36137550Y-31208086D01*
X36105812Y-31160587D01*
X36140337Y-31137518D01*
X36281018Y-30996837D01*
X36391550Y-30831414D01*
X36467686Y-30647606D01*
X36506500Y-30452476D01*
X36506500Y-30253524D01*
X36467686Y-30058394D01*
X36391550Y-29874586D01*
X36281018Y-29709163D01*
X36140337Y-29568482D01*
X35974914Y-29457950D01*
X35791106Y-29381814D01*
X35595976Y-29343000D01*
X35397024Y-29343000D01*
X35201894Y-29381814D01*
X35018086Y-29457950D01*
X34852663Y-29568482D01*
X34711982Y-29709163D01*
X34601450Y-29874586D01*
X34525314Y-30058394D01*
X34486500Y-30253524D01*
X34486500Y-30452476D01*
X34525314Y-30647606D01*
X34601450Y-30831414D01*
X34633188Y-30878913D01*
X34598663Y-30901982D01*
X34457982Y-31042663D01*
X34347450Y-31208086D01*
X34271314Y-31391894D01*
X34232500Y-31587024D01*
X21127000Y-31587024D01*
X21127000Y-30317024D01*
X27565000Y-30317024D01*
X27565000Y-30515976D01*
X27603814Y-30711106D01*
X27679950Y-30894914D01*
X27790482Y-31060337D01*
X27931163Y-31201018D01*
X28096586Y-31311550D01*
X28280394Y-31387686D01*
X28475524Y-31426500D01*
X28674476Y-31426500D01*
X28869606Y-31387686D01*
X29053414Y-31311550D01*
X29218837Y-31201018D01*
X29359518Y-31060337D01*
X29431520Y-30952579D01*
X29493586Y-30994050D01*
X29677394Y-31070186D01*
X29872524Y-31109000D01*
X30071476Y-31109000D01*
X30266606Y-31070186D01*
X30450414Y-30994050D01*
X30615837Y-30883518D01*
X30756518Y-30742837D01*
X30867050Y-30577414D01*
X30943186Y-30393606D01*
X30982000Y-30198476D01*
X30982000Y-29999524D01*
X30943186Y-29804394D01*
X30867050Y-29620586D01*
X30756518Y-29455163D01*
X30615837Y-29314482D01*
X30450414Y-29203950D01*
X30266606Y-29127814D01*
X30071476Y-29089000D01*
X29872524Y-29089000D01*
X29677394Y-29127814D01*
X29493586Y-29203950D01*
X29328163Y-29314482D01*
X29187482Y-29455163D01*
X29115480Y-29562921D01*
X29053414Y-29521450D01*
X28869606Y-29445314D01*
X28674476Y-29406500D01*
X28475524Y-29406500D01*
X28280394Y-29445314D01*
X28096586Y-29521450D01*
X27931163Y-29631982D01*
X27790482Y-29772663D01*
X27679950Y-29938086D01*
X27603814Y-30121894D01*
X27565000Y-30317024D01*
X21127000Y-30317024D01*
X21127000Y-28094524D01*
X27057000Y-28094524D01*
X27057000Y-28293476D01*
X27095814Y-28488606D01*
X27171950Y-28672414D01*
X27282482Y-28837837D01*
X27423163Y-28978518D01*
X27588586Y-29089050D01*
X27772394Y-29165186D01*
X27967524Y-29204000D01*
X28166476Y-29204000D01*
X28361606Y-29165186D01*
X28545414Y-29089050D01*
X28710837Y-28978518D01*
X28851518Y-28837837D01*
X28962050Y-28672414D01*
X29038186Y-28488606D01*
X29077000Y-28293476D01*
X29077000Y-28094524D01*
X34931000Y-28094524D01*
X34931000Y-28293476D01*
X34969814Y-28488606D01*
X35045950Y-28672414D01*
X35156482Y-28837837D01*
X35297163Y-28978518D01*
X35462586Y-29089050D01*
X35646394Y-29165186D01*
X35841524Y-29204000D01*
X36040476Y-29204000D01*
X36235606Y-29165186D01*
X36419414Y-29089050D01*
X36584837Y-28978518D01*
X36725518Y-28837837D01*
X36836050Y-28672414D01*
X36912186Y-28488606D01*
X36951000Y-28293476D01*
X36951000Y-28094524D01*
X36912186Y-27899394D01*
X36836050Y-27715586D01*
X36725518Y-27550163D01*
X36698379Y-27523024D01*
X47758000Y-27523024D01*
X47758000Y-27721976D01*
X47796814Y-27917106D01*
X47872950Y-28100914D01*
X47983482Y-28266337D01*
X48124163Y-28407018D01*
X48289586Y-28517550D01*
X48473394Y-28593686D01*
X48668524Y-28632500D01*
X48867476Y-28632500D01*
X49062606Y-28593686D01*
X49246414Y-28517550D01*
X49411837Y-28407018D01*
X49552518Y-28266337D01*
X49663050Y-28100914D01*
X49739186Y-27917106D01*
X49778000Y-27721976D01*
X49778000Y-27523024D01*
X49776906Y-27517524D01*
X50240000Y-27517524D01*
X50240000Y-27716476D01*
X50278814Y-27911606D01*
X50354950Y-28095414D01*
X50465482Y-28260837D01*
X50606163Y-28401518D01*
X50771586Y-28512050D01*
X50955394Y-28588186D01*
X51150524Y-28627000D01*
X51349476Y-28627000D01*
X51544606Y-28588186D01*
X51728414Y-28512050D01*
X51893837Y-28401518D01*
X52034518Y-28260837D01*
X52145050Y-28095414D01*
X52221186Y-27911606D01*
X52260000Y-27716476D01*
X52260000Y-27517524D01*
X52221186Y-27322394D01*
X52145050Y-27138586D01*
X52034518Y-26973163D01*
X51893837Y-26832482D01*
X51728414Y-26721950D01*
X51544606Y-26645814D01*
X51349476Y-26607000D01*
X51150524Y-26607000D01*
X50955394Y-26645814D01*
X50771586Y-26721950D01*
X50606163Y-26832482D01*
X50465482Y-26973163D01*
X50354950Y-27138586D01*
X50278814Y-27322394D01*
X50240000Y-27517524D01*
X49776906Y-27517524D01*
X49739186Y-27327894D01*
X49663050Y-27144086D01*
X49552518Y-26978663D01*
X49411837Y-26837982D01*
X49246414Y-26727450D01*
X49062606Y-26651314D01*
X48867476Y-26612500D01*
X48668524Y-26612500D01*
X48473394Y-26651314D01*
X48289586Y-26727450D01*
X48124163Y-26837982D01*
X47983482Y-26978663D01*
X47872950Y-27144086D01*
X47796814Y-27327894D01*
X47758000Y-27523024D01*
X36698379Y-27523024D01*
X36584837Y-27409482D01*
X36419414Y-27298950D01*
X36235606Y-27222814D01*
X36040476Y-27184000D01*
X35841524Y-27184000D01*
X35646394Y-27222814D01*
X35462586Y-27298950D01*
X35297163Y-27409482D01*
X35156482Y-27550163D01*
X35045950Y-27715586D01*
X34969814Y-27899394D01*
X34931000Y-28094524D01*
X29077000Y-28094524D01*
X29038186Y-27899394D01*
X28962050Y-27715586D01*
X28851518Y-27550163D01*
X28710837Y-27409482D01*
X28545414Y-27298950D01*
X28361606Y-27222814D01*
X28166476Y-27184000D01*
X27967524Y-27184000D01*
X27772394Y-27222814D01*
X27588586Y-27298950D01*
X27423163Y-27409482D01*
X27282482Y-27550163D01*
X27171950Y-27715586D01*
X27095814Y-27899394D01*
X27057000Y-28094524D01*
X21127000Y-28094524D01*
X21127000Y-25136295D01*
X21192793Y-25202088D01*
X21657124Y-25512344D01*
X22173061Y-25726052D01*
X22720777Y-25835000D01*
X23279223Y-25835000D01*
X23826939Y-25726052D01*
X24342876Y-25512344D01*
X24378992Y-25488212D01*
X28665000Y-25488212D01*
X28665000Y-25711788D01*
X28708617Y-25931067D01*
X28794176Y-26137624D01*
X28918388Y-26323520D01*
X29076480Y-26481612D01*
X29262376Y-26605824D01*
X29468933Y-26691383D01*
X29688212Y-26735000D01*
X29911788Y-26735000D01*
X30131067Y-26691383D01*
X30337624Y-26605824D01*
X30523520Y-26481612D01*
X30681612Y-26323520D01*
X30805824Y-26137624D01*
X30891383Y-25931067D01*
X30935000Y-25711788D01*
X30935000Y-25488212D01*
X33065000Y-25488212D01*
X33065000Y-25711788D01*
X33108617Y-25931067D01*
X33194176Y-26137624D01*
X33318388Y-26323520D01*
X33476480Y-26481612D01*
X33662376Y-26605824D01*
X33868933Y-26691383D01*
X34088212Y-26735000D01*
X34311788Y-26735000D01*
X34531067Y-26691383D01*
X34737624Y-26605824D01*
X34923520Y-26481612D01*
X35081612Y-26323520D01*
X35205824Y-26137624D01*
X35291383Y-25931067D01*
X35335000Y-25711788D01*
X35335000Y-25488212D01*
X35291383Y-25268933D01*
X35205824Y-25062376D01*
X35081612Y-24876480D01*
X34923520Y-24718388D01*
X34737624Y-24594176D01*
X34531067Y-24508617D01*
X34311788Y-24465000D01*
X34088212Y-24465000D01*
X33868933Y-24508617D01*
X33662376Y-24594176D01*
X33476480Y-24718388D01*
X33318388Y-24876480D01*
X33194176Y-25062376D01*
X33108617Y-25268933D01*
X33065000Y-25488212D01*
X30935000Y-25488212D01*
X30891383Y-25268933D01*
X30805824Y-25062376D01*
X30681612Y-24876480D01*
X30523520Y-24718388D01*
X30337624Y-24594176D01*
X30131067Y-24508617D01*
X29911788Y-24465000D01*
X29688212Y-24465000D01*
X29468933Y-24508617D01*
X29262376Y-24594176D01*
X29076480Y-24718388D01*
X28918388Y-24876480D01*
X28794176Y-25062376D01*
X28708617Y-25268933D01*
X28665000Y-25488212D01*
X24378992Y-25488212D01*
X24807207Y-25202088D01*
X25202088Y-24807207D01*
X25512344Y-24342876D01*
X25726052Y-23826939D01*
X25835000Y-23279223D01*
X25835000Y-22720777D01*
X25817645Y-22633524D01*
X27057000Y-22633524D01*
X27057000Y-22832476D01*
X27095814Y-23027606D01*
X27171950Y-23211414D01*
X27282482Y-23376837D01*
X27423163Y-23517518D01*
X27588586Y-23628050D01*
X27772394Y-23704186D01*
X27967524Y-23743000D01*
X28166476Y-23743000D01*
X28361606Y-23704186D01*
X28545414Y-23628050D01*
X28710837Y-23517518D01*
X28851518Y-23376837D01*
X28962050Y-23211414D01*
X29038186Y-23027606D01*
X29077000Y-22832476D01*
X29077000Y-22633524D01*
X34931000Y-22633524D01*
X34931000Y-22832476D01*
X34969814Y-23027606D01*
X35045950Y-23211414D01*
X35156482Y-23376837D01*
X35297163Y-23517518D01*
X35462586Y-23628050D01*
X35646394Y-23704186D01*
X35841524Y-23743000D01*
X36040476Y-23743000D01*
X36235606Y-23704186D01*
X36419414Y-23628050D01*
X36584837Y-23517518D01*
X36725518Y-23376837D01*
X36836050Y-23211414D01*
X36912186Y-23027606D01*
X36917912Y-22998816D01*
X41465000Y-22998816D01*
X41465000Y-23301184D01*
X41523989Y-23597743D01*
X41639701Y-23877095D01*
X41807688Y-24128505D01*
X42021495Y-24342312D01*
X42272905Y-24510299D01*
X42552257Y-24626011D01*
X42848816Y-24685000D01*
X43151184Y-24685000D01*
X43447743Y-24626011D01*
X43727095Y-24510299D01*
X43978505Y-24342312D01*
X44044944Y-24275873D01*
X44050498Y-24294180D01*
X44109463Y-24404494D01*
X44188815Y-24501185D01*
X44285506Y-24580537D01*
X44395820Y-24639502D01*
X44515518Y-24675812D01*
X44640000Y-24688072D01*
X46440000Y-24688072D01*
X46564482Y-24675812D01*
X46684180Y-24639502D01*
X46794494Y-24580537D01*
X46891185Y-24501185D01*
X46970537Y-24404494D01*
X47029502Y-24294180D01*
X47065812Y-24174482D01*
X47078072Y-24050000D01*
X47078072Y-22310524D01*
X50240000Y-22310524D01*
X50240000Y-22509476D01*
X50278814Y-22704606D01*
X50354950Y-22888414D01*
X50465482Y-23053837D01*
X50606163Y-23194518D01*
X50771586Y-23305050D01*
X50955394Y-23381186D01*
X51150524Y-23420000D01*
X51349476Y-23420000D01*
X51544606Y-23381186D01*
X51728414Y-23305050D01*
X51893837Y-23194518D01*
X52034518Y-23053837D01*
X52145050Y-22888414D01*
X52221186Y-22704606D01*
X52260000Y-22509476D01*
X52260000Y-22310524D01*
X52221186Y-22115394D01*
X52145050Y-21931586D01*
X52034518Y-21766163D01*
X51893837Y-21625482D01*
X51728414Y-21514950D01*
X51544606Y-21438814D01*
X51349476Y-21400000D01*
X51150524Y-21400000D01*
X50955394Y-21438814D01*
X50771586Y-21514950D01*
X50606163Y-21625482D01*
X50465482Y-21766163D01*
X50354950Y-21931586D01*
X50278814Y-22115394D01*
X50240000Y-22310524D01*
X47078072Y-22310524D01*
X47078072Y-22250000D01*
X47065812Y-22125518D01*
X47029502Y-22005820D01*
X46970537Y-21895506D01*
X46891185Y-21798815D01*
X46794494Y-21719463D01*
X46684180Y-21660498D01*
X46564482Y-21624188D01*
X46440000Y-21611928D01*
X44640000Y-21611928D01*
X44515518Y-21624188D01*
X44395820Y-21660498D01*
X44285506Y-21719463D01*
X44188815Y-21798815D01*
X44109463Y-21895506D01*
X44050498Y-22005820D01*
X44044944Y-22024127D01*
X43978505Y-21957688D01*
X43727095Y-21789701D01*
X43447743Y-21673989D01*
X43151184Y-21615000D01*
X42848816Y-21615000D01*
X42552257Y-21673989D01*
X42272905Y-21789701D01*
X42021495Y-21957688D01*
X41807688Y-22171495D01*
X41639701Y-22422905D01*
X41523989Y-22702257D01*
X41465000Y-22998816D01*
X36917912Y-22998816D01*
X36951000Y-22832476D01*
X36951000Y-22633524D01*
X36912186Y-22438394D01*
X36836050Y-22254586D01*
X36725518Y-22089163D01*
X36584837Y-21948482D01*
X36419414Y-21837950D01*
X36235606Y-21761814D01*
X36040476Y-21723000D01*
X35841524Y-21723000D01*
X35646394Y-21761814D01*
X35462586Y-21837950D01*
X35297163Y-21948482D01*
X35156482Y-22089163D01*
X35045950Y-22254586D01*
X34969814Y-22438394D01*
X34931000Y-22633524D01*
X29077000Y-22633524D01*
X29038186Y-22438394D01*
X28962050Y-22254586D01*
X28851518Y-22089163D01*
X28710837Y-21948482D01*
X28545414Y-21837950D01*
X28361606Y-21761814D01*
X28166476Y-21723000D01*
X27967524Y-21723000D01*
X27772394Y-21761814D01*
X27588586Y-21837950D01*
X27423163Y-21948482D01*
X27282482Y-22089163D01*
X27171950Y-22254586D01*
X27095814Y-22438394D01*
X27057000Y-22633524D01*
X25817645Y-22633524D01*
X25726052Y-22173061D01*
X25512344Y-21657124D01*
X25202088Y-21192793D01*
X25136295Y-21127000D01*
X64863705Y-21127000D01*
X64797912Y-21192793D01*
G37*
X64797912Y-21192793D02*
X64487656Y-21657124D01*
X64273948Y-22173061D01*
X64165000Y-22720777D01*
X64165000Y-23279223D01*
X64273948Y-23826939D01*
X64487656Y-24342876D01*
X64797912Y-24807207D01*
X65192793Y-25202088D01*
X65657124Y-25512344D01*
X66173061Y-25726052D01*
X66720777Y-25835000D01*
X67279223Y-25835000D01*
X67826939Y-25726052D01*
X68342876Y-25512344D01*
X68807207Y-25202088D01*
X68873000Y-25136295D01*
X68873000Y-84863705D01*
X68807207Y-84797912D01*
X68342876Y-84487656D01*
X67826939Y-84273948D01*
X67279223Y-84165000D01*
X66720777Y-84165000D01*
X66173061Y-84273948D01*
X65657124Y-84487656D01*
X65192793Y-84797912D01*
X64797912Y-85192793D01*
X64487656Y-85657124D01*
X64273948Y-86173061D01*
X64165000Y-86720777D01*
X64165000Y-87279223D01*
X64273948Y-87826939D01*
X64487656Y-88342876D01*
X64797912Y-88807207D01*
X64863705Y-88873000D01*
X25136295Y-88873000D01*
X25202088Y-88807207D01*
X25512344Y-88342876D01*
X25726052Y-87826939D01*
X25835000Y-87279223D01*
X25835000Y-86720777D01*
X25726052Y-86173061D01*
X25512344Y-85657124D01*
X25202088Y-85192793D01*
X24807207Y-84797912D01*
X24342876Y-84487656D01*
X23826939Y-84273948D01*
X23279223Y-84165000D01*
X22720777Y-84165000D01*
X22173061Y-84273948D01*
X21657124Y-84487656D01*
X21192793Y-84797912D01*
X21127000Y-84863705D01*
X21127000Y-83549367D01*
X30593500Y-83549367D01*
X30593500Y-83871433D01*
X30656332Y-84187312D01*
X30779582Y-84484863D01*
X30958513Y-84752652D01*
X31186248Y-84980387D01*
X31454037Y-85159318D01*
X31751588Y-85282568D01*
X32067467Y-85345400D01*
X32389533Y-85345400D01*
X32705412Y-85282568D01*
X33002963Y-85159318D01*
X33270752Y-84980387D01*
X33498487Y-84752652D01*
X33677418Y-84484863D01*
X33800668Y-84187312D01*
X33863500Y-83871433D01*
X33863500Y-83549367D01*
X35593500Y-83549367D01*
X35593500Y-83871433D01*
X35656332Y-84187312D01*
X35779582Y-84484863D01*
X35958513Y-84752652D01*
X36186248Y-84980387D01*
X36454037Y-85159318D01*
X36751588Y-85282568D01*
X37067467Y-85345400D01*
X37389533Y-85345400D01*
X37705412Y-85282568D01*
X38002963Y-85159318D01*
X38270752Y-84980387D01*
X38498487Y-84752652D01*
X38677418Y-84484863D01*
X38800668Y-84187312D01*
X38863500Y-83871433D01*
X38863500Y-83549367D01*
X38800668Y-83233488D01*
X38677418Y-82935937D01*
X38498487Y-82668148D01*
X38270752Y-82440413D01*
X38002963Y-82261482D01*
X37705412Y-82138232D01*
X37389533Y-82075400D01*
X37067467Y-82075400D01*
X36751588Y-82138232D01*
X36454037Y-82261482D01*
X36186248Y-82440413D01*
X35958513Y-82668148D01*
X35779582Y-82935937D01*
X35656332Y-83233488D01*
X35593500Y-83549367D01*
X33863500Y-83549367D01*
X33800668Y-83233488D01*
X33677418Y-82935937D01*
X33498487Y-82668148D01*
X33270752Y-82440413D01*
X33002963Y-82261482D01*
X32705412Y-82138232D01*
X32389533Y-82075400D01*
X32067467Y-82075400D01*
X31751588Y-82138232D01*
X31454037Y-82261482D01*
X31186248Y-82440413D01*
X30958513Y-82668148D01*
X30779582Y-82935937D01*
X30656332Y-83233488D01*
X30593500Y-83549367D01*
X21127000Y-83549367D01*
X21127000Y-75110400D01*
X27490428Y-75110400D01*
X27490428Y-78310400D01*
X27502688Y-78434882D01*
X27538998Y-78554580D01*
X27597963Y-78664894D01*
X27677315Y-78761585D01*
X27774006Y-78840937D01*
X27884320Y-78899902D01*
X28004018Y-78936212D01*
X28128500Y-78948472D01*
X30128500Y-78948472D01*
X30252982Y-78936212D01*
X30372680Y-78899902D01*
X30482994Y-78840937D01*
X30579685Y-78761585D01*
X30659037Y-78664894D01*
X30718002Y-78554580D01*
X30754312Y-78434882D01*
X30766572Y-78310400D01*
X30766572Y-75110400D01*
X38690428Y-75110400D01*
X38690428Y-78310400D01*
X38702688Y-78434882D01*
X38738998Y-78554580D01*
X38797963Y-78664894D01*
X38877315Y-78761585D01*
X38974006Y-78840937D01*
X39084320Y-78899902D01*
X39204018Y-78936212D01*
X39328500Y-78948472D01*
X41328500Y-78948472D01*
X41452982Y-78936212D01*
X41572680Y-78899902D01*
X41682994Y-78840937D01*
X41779685Y-78761585D01*
X41859037Y-78664894D01*
X41918002Y-78554580D01*
X41954312Y-78434882D01*
X41966572Y-78310400D01*
X41966572Y-75110400D01*
X41954312Y-74985918D01*
X41918002Y-74866220D01*
X41859037Y-74755906D01*
X41779685Y-74659215D01*
X41682994Y-74579863D01*
X41572680Y-74520898D01*
X41452982Y-74484588D01*
X41328500Y-74472328D01*
X39328500Y-74472328D01*
X39204018Y-74484588D01*
X39084320Y-74520898D01*
X38974006Y-74579863D01*
X38877315Y-74659215D01*
X38797963Y-74755906D01*
X38738998Y-74866220D01*
X38702688Y-74985918D01*
X38690428Y-75110400D01*
X30766572Y-75110400D01*
X30754312Y-74985918D01*
X30718002Y-74866220D01*
X30659037Y-74755906D01*
X30579685Y-74659215D01*
X30482994Y-74579863D01*
X30372680Y-74520898D01*
X30252982Y-74484588D01*
X30128500Y-74472328D01*
X28128500Y-74472328D01*
X28004018Y-74484588D01*
X27884320Y-74520898D01*
X27774006Y-74579863D01*
X27677315Y-74659215D01*
X27597963Y-74755906D01*
X27538998Y-74866220D01*
X27502688Y-74985918D01*
X27490428Y-75110400D01*
X21127000Y-75110400D01*
X21127000Y-69049367D01*
X30593500Y-69049367D01*
X30593500Y-69371433D01*
X30656332Y-69687312D01*
X30779582Y-69984863D01*
X30958513Y-70252652D01*
X31186248Y-70480387D01*
X31454037Y-70659318D01*
X31751588Y-70782568D01*
X32067467Y-70845400D01*
X32389533Y-70845400D01*
X32705412Y-70782568D01*
X33002963Y-70659318D01*
X33270752Y-70480387D01*
X33478500Y-70272639D01*
X33686248Y-70480387D01*
X33954037Y-70659318D01*
X34251588Y-70782568D01*
X34567467Y-70845400D01*
X34889533Y-70845400D01*
X35205412Y-70782568D01*
X35502963Y-70659318D01*
X35683835Y-70538463D01*
X35697963Y-70564894D01*
X35777315Y-70661585D01*
X35874006Y-70740937D01*
X35984320Y-70799902D01*
X36104018Y-70836212D01*
X36228500Y-70848472D01*
X38228500Y-70848472D01*
X38352982Y-70836212D01*
X38472680Y-70799902D01*
X38582994Y-70740937D01*
X38679685Y-70661585D01*
X38759037Y-70564894D01*
X38818002Y-70454580D01*
X38854312Y-70334882D01*
X38866572Y-70210400D01*
X38866572Y-68210400D01*
X38854312Y-68085918D01*
X38818002Y-67966220D01*
X38759037Y-67855906D01*
X38679685Y-67759215D01*
X38582994Y-67679863D01*
X38472680Y-67620898D01*
X38352982Y-67584588D01*
X38228500Y-67572328D01*
X36228500Y-67572328D01*
X36104018Y-67584588D01*
X35984320Y-67620898D01*
X35874006Y-67679863D01*
X35777315Y-67759215D01*
X35697963Y-67855906D01*
X35683835Y-67882337D01*
X35502963Y-67761482D01*
X35205412Y-67638232D01*
X34889533Y-67575400D01*
X34567467Y-67575400D01*
X34251588Y-67638232D01*
X33954037Y-67761482D01*
X33686248Y-67940413D01*
X33478500Y-68148161D01*
X33270752Y-67940413D01*
X33002963Y-67761482D01*
X32705412Y-67638232D01*
X32389533Y-67575400D01*
X32067467Y-67575400D01*
X31751588Y-67638232D01*
X31454037Y-67761482D01*
X31186248Y-67940413D01*
X30958513Y-68168148D01*
X30779582Y-68435937D01*
X30656332Y-68733488D01*
X30593500Y-69049367D01*
X21127000Y-69049367D01*
X21127000Y-67337524D01*
X29216000Y-67337524D01*
X29216000Y-67536476D01*
X29254814Y-67731606D01*
X29330950Y-67915414D01*
X29441482Y-68080837D01*
X29582163Y-68221518D01*
X29747586Y-68332050D01*
X29931394Y-68408186D01*
X30126524Y-68447000D01*
X30325476Y-68447000D01*
X30520606Y-68408186D01*
X30704414Y-68332050D01*
X30869837Y-68221518D01*
X31010518Y-68080837D01*
X31121050Y-67915414D01*
X31197186Y-67731606D01*
X31236000Y-67536476D01*
X31236000Y-67401024D01*
X41154000Y-67401024D01*
X41154000Y-67599976D01*
X41192814Y-67795106D01*
X41268950Y-67978914D01*
X41379482Y-68144337D01*
X41520163Y-68285018D01*
X41685586Y-68395550D01*
X41869394Y-68471686D01*
X42064524Y-68510500D01*
X42263476Y-68510500D01*
X42458606Y-68471686D01*
X42642414Y-68395550D01*
X42807837Y-68285018D01*
X42948518Y-68144337D01*
X43059050Y-67978914D01*
X43135186Y-67795106D01*
X43174000Y-67599976D01*
X43174000Y-67401024D01*
X43135186Y-67205894D01*
X43059050Y-67022086D01*
X42948518Y-66856663D01*
X42807837Y-66715982D01*
X42642414Y-66605450D01*
X42458606Y-66529314D01*
X42263476Y-66490500D01*
X42064524Y-66490500D01*
X41869394Y-66529314D01*
X41685586Y-66605450D01*
X41520163Y-66715982D01*
X41379482Y-66856663D01*
X41268950Y-67022086D01*
X41192814Y-67205894D01*
X41154000Y-67401024D01*
X31236000Y-67401024D01*
X31236000Y-67337524D01*
X31197186Y-67142394D01*
X31121050Y-66958586D01*
X31010518Y-66793163D01*
X30869837Y-66652482D01*
X30704414Y-66541950D01*
X30520606Y-66465814D01*
X30325476Y-66427000D01*
X30126524Y-66427000D01*
X29931394Y-66465814D01*
X29747586Y-66541950D01*
X29582163Y-66652482D01*
X29441482Y-66793163D01*
X29330950Y-66958586D01*
X29254814Y-67142394D01*
X29216000Y-67337524D01*
X21127000Y-67337524D01*
X21127000Y-60352524D01*
X35375500Y-60352524D01*
X35375500Y-60551476D01*
X35414314Y-60746606D01*
X35490450Y-60930414D01*
X35600982Y-61095837D01*
X35741663Y-61236518D01*
X35907086Y-61347050D01*
X36090894Y-61423186D01*
X36286024Y-61462000D01*
X36484976Y-61462000D01*
X36680106Y-61423186D01*
X36863914Y-61347050D01*
X37029337Y-61236518D01*
X37170018Y-61095837D01*
X37280550Y-60930414D01*
X37356686Y-60746606D01*
X37395500Y-60551476D01*
X37395500Y-60352524D01*
X37356686Y-60157394D01*
X37280550Y-59973586D01*
X37170018Y-59808163D01*
X37029337Y-59667482D01*
X36863914Y-59556950D01*
X36680106Y-59480814D01*
X36484976Y-59442000D01*
X36286024Y-59442000D01*
X36090894Y-59480814D01*
X35907086Y-59556950D01*
X35741663Y-59667482D01*
X35600982Y-59808163D01*
X35490450Y-59973586D01*
X35414314Y-60157394D01*
X35375500Y-60352524D01*
X21127000Y-60352524D01*
X21127000Y-54900524D01*
X34990000Y-54900524D01*
X34990000Y-55099476D01*
X35028814Y-55294606D01*
X35104950Y-55478414D01*
X35119373Y-55500000D01*
X35104950Y-55521586D01*
X35028814Y-55705394D01*
X34990000Y-55900524D01*
X34990000Y-56099476D01*
X35028814Y-56294606D01*
X35104950Y-56478414D01*
X35119373Y-56500000D01*
X35104950Y-56521586D01*
X35028814Y-56705394D01*
X34990000Y-56900524D01*
X34990000Y-57099476D01*
X35028814Y-57294606D01*
X35104950Y-57478414D01*
X35215482Y-57643837D01*
X35356163Y-57784518D01*
X35521586Y-57895050D01*
X35705394Y-57971186D01*
X35900524Y-58010000D01*
X36099476Y-58010000D01*
X36294606Y-57971186D01*
X36478414Y-57895050D01*
X36643837Y-57784518D01*
X36784518Y-57643837D01*
X36847217Y-57550000D01*
X38011928Y-57550000D01*
X38024188Y-57674482D01*
X38060498Y-57794180D01*
X38119463Y-57904494D01*
X38198815Y-58001185D01*
X38295506Y-58080537D01*
X38405820Y-58139502D01*
X38525518Y-58175812D01*
X38650000Y-58188072D01*
X39864250Y-58185000D01*
X40023000Y-58026250D01*
X40023000Y-56177000D01*
X40277000Y-56177000D01*
X40277000Y-58026250D01*
X40435750Y-58185000D01*
X41650000Y-58188072D01*
X41774482Y-58175812D01*
X41894180Y-58139502D01*
X42004494Y-58080537D01*
X42101185Y-58001185D01*
X42180537Y-57904494D01*
X42239502Y-57794180D01*
X42275812Y-57674482D01*
X42288072Y-57550000D01*
X42285000Y-56335750D01*
X42126250Y-56177000D01*
X40277000Y-56177000D01*
X40023000Y-56177000D01*
X38173750Y-56177000D01*
X38015000Y-56335750D01*
X38011928Y-57550000D01*
X36847217Y-57550000D01*
X36895050Y-57478414D01*
X36971186Y-57294606D01*
X37010000Y-57099476D01*
X37010000Y-56900524D01*
X36971186Y-56705394D01*
X36895050Y-56521586D01*
X36880627Y-56500000D01*
X36895050Y-56478414D01*
X36971186Y-56294606D01*
X37010000Y-56099476D01*
X37010000Y-55900524D01*
X36971186Y-55705394D01*
X36895050Y-55521586D01*
X36880627Y-55500000D01*
X36895050Y-55478414D01*
X36971186Y-55294606D01*
X37010000Y-55099476D01*
X37010000Y-54900524D01*
X36971186Y-54705394D01*
X36906820Y-54550000D01*
X38011928Y-54550000D01*
X38015000Y-55764250D01*
X38173750Y-55923000D01*
X40023000Y-55923000D01*
X40023000Y-54073750D01*
X40277000Y-54073750D01*
X40277000Y-55923000D01*
X42126250Y-55923000D01*
X42209529Y-55839721D01*
X58505000Y-55839721D01*
X58505000Y-56260279D01*
X58587047Y-56672756D01*
X58747988Y-57061302D01*
X58981637Y-57410983D01*
X59279017Y-57708363D01*
X59628698Y-57942012D01*
X60017244Y-58102953D01*
X60429721Y-58185000D01*
X60850279Y-58185000D01*
X61262756Y-58102953D01*
X61651302Y-57942012D01*
X62000983Y-57708363D01*
X62298363Y-57410983D01*
X62532012Y-57061302D01*
X62692953Y-56672756D01*
X62775000Y-56260279D01*
X62775000Y-55839721D01*
X62692953Y-55427244D01*
X62532012Y-55038698D01*
X62298363Y-54689017D01*
X62000983Y-54391637D01*
X61651302Y-54157988D01*
X61262756Y-53997047D01*
X60850279Y-53915000D01*
X60429721Y-53915000D01*
X60017244Y-53997047D01*
X59628698Y-54157988D01*
X59279017Y-54391637D01*
X58981637Y-54689017D01*
X58747988Y-55038698D01*
X58587047Y-55427244D01*
X58505000Y-55839721D01*
X42209529Y-55839721D01*
X42285000Y-55764250D01*
X42288072Y-54550000D01*
X42275812Y-54425518D01*
X42239502Y-54305820D01*
X42180537Y-54195506D01*
X42101185Y-54098815D01*
X42004494Y-54019463D01*
X41894180Y-53960498D01*
X41774482Y-53924188D01*
X41650000Y-53911928D01*
X40435750Y-53915000D01*
X40277000Y-54073750D01*
X40023000Y-54073750D01*
X39864250Y-53915000D01*
X38650000Y-53911928D01*
X38525518Y-53924188D01*
X38405820Y-53960498D01*
X38295506Y-54019463D01*
X38198815Y-54098815D01*
X38119463Y-54195506D01*
X38060498Y-54305820D01*
X38024188Y-54425518D01*
X38011928Y-54550000D01*
X36906820Y-54550000D01*
X36895050Y-54521586D01*
X36784518Y-54356163D01*
X36643837Y-54215482D01*
X36478414Y-54104950D01*
X36294606Y-54028814D01*
X36099476Y-53990000D01*
X35900524Y-53990000D01*
X35705394Y-54028814D01*
X35521586Y-54104950D01*
X35356163Y-54215482D01*
X35215482Y-54356163D01*
X35104950Y-54521586D01*
X35028814Y-54705394D01*
X34990000Y-54900524D01*
X21127000Y-54900524D01*
X21127000Y-47208024D01*
X42932000Y-47208024D01*
X42932000Y-47406976D01*
X42970814Y-47602106D01*
X43046950Y-47785914D01*
X43157482Y-47951337D01*
X43298163Y-48092018D01*
X43463586Y-48202550D01*
X43647394Y-48278686D01*
X43842524Y-48317500D01*
X44041476Y-48317500D01*
X44236606Y-48278686D01*
X44420414Y-48202550D01*
X44585837Y-48092018D01*
X44726518Y-47951337D01*
X44837050Y-47785914D01*
X44913186Y-47602106D01*
X44952000Y-47406976D01*
X44952000Y-47208024D01*
X44913186Y-47012894D01*
X44837050Y-46829086D01*
X44726518Y-46663663D01*
X44585837Y-46522982D01*
X44420414Y-46412450D01*
X44236606Y-46336314D01*
X44041476Y-46297500D01*
X43842524Y-46297500D01*
X43647394Y-46336314D01*
X43463586Y-46412450D01*
X43298163Y-46522982D01*
X43157482Y-46663663D01*
X43046950Y-46829086D01*
X42970814Y-47012894D01*
X42932000Y-47208024D01*
X21127000Y-47208024D01*
X21127000Y-44922024D01*
X42932000Y-44922024D01*
X42932000Y-45120976D01*
X42970814Y-45316106D01*
X43046950Y-45499914D01*
X43157482Y-45665337D01*
X43298163Y-45806018D01*
X43463586Y-45916550D01*
X43647394Y-45992686D01*
X43842524Y-46031500D01*
X44041476Y-46031500D01*
X44236606Y-45992686D01*
X44420414Y-45916550D01*
X44585837Y-45806018D01*
X44726518Y-45665337D01*
X44837050Y-45499914D01*
X44913186Y-45316106D01*
X44952000Y-45120976D01*
X44952000Y-44922024D01*
X44913186Y-44726894D01*
X44837050Y-44543086D01*
X44726518Y-44377663D01*
X44585837Y-44236982D01*
X44420414Y-44126450D01*
X44236606Y-44050314D01*
X44041476Y-44011500D01*
X43842524Y-44011500D01*
X43647394Y-44050314D01*
X43463586Y-44126450D01*
X43298163Y-44236982D01*
X43157482Y-44377663D01*
X43046950Y-44543086D01*
X42970814Y-44726894D01*
X42932000Y-44922024D01*
X21127000Y-44922024D01*
X21127000Y-42826524D01*
X24961500Y-42826524D01*
X24961500Y-43025476D01*
X25000314Y-43220606D01*
X25076450Y-43404414D01*
X25186982Y-43569837D01*
X25327663Y-43710518D01*
X25493086Y-43821050D01*
X25676894Y-43897186D01*
X25872024Y-43936000D01*
X26070976Y-43936000D01*
X26266106Y-43897186D01*
X26449914Y-43821050D01*
X26615337Y-43710518D01*
X26756018Y-43569837D01*
X26866550Y-43404414D01*
X26872520Y-43390000D01*
X48511928Y-43390000D01*
X48524188Y-43514482D01*
X48560498Y-43634180D01*
X48619463Y-43744494D01*
X48698815Y-43841185D01*
X48795506Y-43920537D01*
X48905820Y-43979502D01*
X49025518Y-44015812D01*
X49150000Y-44028072D01*
X49714250Y-44025000D01*
X49873000Y-43866250D01*
X49873000Y-42667000D01*
X50127000Y-42667000D01*
X50127000Y-43866250D01*
X50285750Y-44025000D01*
X50850000Y-44028072D01*
X50974482Y-44015812D01*
X51094180Y-43979502D01*
X51204494Y-43920537D01*
X51301185Y-43841185D01*
X51380537Y-43744494D01*
X51439502Y-43634180D01*
X51475812Y-43514482D01*
X51488072Y-43390000D01*
X51485000Y-42825750D01*
X51326250Y-42667000D01*
X50127000Y-42667000D01*
X49873000Y-42667000D01*
X48673750Y-42667000D01*
X48515000Y-42825750D01*
X48511928Y-43390000D01*
X26872520Y-43390000D01*
X26942686Y-43220606D01*
X26981500Y-43025476D01*
X26981500Y-42826524D01*
X26942686Y-42631394D01*
X26866550Y-42447586D01*
X26756018Y-42282163D01*
X26615337Y-42141482D01*
X26449914Y-42030950D01*
X26266106Y-41954814D01*
X26070976Y-41916000D01*
X25872024Y-41916000D01*
X25676894Y-41954814D01*
X25493086Y-42030950D01*
X25327663Y-42141482D01*
X25186982Y-42282163D01*
X25076450Y-42447586D01*
X25000314Y-42631394D01*
X24961500Y-42826524D01*
X21127000Y-42826524D01*
X21127000Y-38303024D01*
X28962000Y-38303024D01*
X28962000Y-38501976D01*
X29000814Y-38697106D01*
X29076950Y-38880914D01*
X29187482Y-39046337D01*
X29328163Y-39187018D01*
X29366639Y-39212727D01*
X29318314Y-39329394D01*
X29279500Y-39524524D01*
X29279500Y-39723476D01*
X29318314Y-39918606D01*
X29394450Y-40102414D01*
X29504982Y-40267837D01*
X29645663Y-40408518D01*
X29811086Y-40519050D01*
X29994894Y-40595186D01*
X30190024Y-40634000D01*
X30388976Y-40634000D01*
X30584106Y-40595186D01*
X30767914Y-40519050D01*
X30933337Y-40408518D01*
X31074018Y-40267837D01*
X31184550Y-40102414D01*
X31260686Y-39918606D01*
X31299500Y-39723476D01*
X31299500Y-39524524D01*
X31260686Y-39329394D01*
X31184550Y-39145586D01*
X31074018Y-38980163D01*
X30983379Y-38889524D01*
X31311500Y-38889524D01*
X31311500Y-39088476D01*
X31350314Y-39283606D01*
X31426450Y-39467414D01*
X31536982Y-39632837D01*
X31677663Y-39773518D01*
X31843086Y-39884050D01*
X32026894Y-39960186D01*
X32222024Y-39999000D01*
X32420976Y-39999000D01*
X32616106Y-39960186D01*
X32658262Y-39942724D01*
X36163800Y-39942724D01*
X36163800Y-40141676D01*
X36202614Y-40336806D01*
X36278750Y-40520614D01*
X36389282Y-40686037D01*
X36529963Y-40826718D01*
X36695386Y-40937250D01*
X36879194Y-41013386D01*
X37074324Y-41052200D01*
X37273276Y-41052200D01*
X37468406Y-41013386D01*
X37652214Y-40937250D01*
X37770784Y-40858024D01*
X44329000Y-40858024D01*
X44329000Y-41056976D01*
X44367814Y-41252106D01*
X44443950Y-41435914D01*
X44554482Y-41601337D01*
X44695163Y-41742018D01*
X44860586Y-41852550D01*
X45044394Y-41928686D01*
X45239524Y-41967500D01*
X45438476Y-41967500D01*
X45633606Y-41928686D01*
X45817414Y-41852550D01*
X45982837Y-41742018D01*
X46034855Y-41690000D01*
X48511928Y-41690000D01*
X48515000Y-42254250D01*
X48673750Y-42413000D01*
X49873000Y-42413000D01*
X49873000Y-42393000D01*
X50127000Y-42393000D01*
X50127000Y-42413000D01*
X51326250Y-42413000D01*
X51485000Y-42254250D01*
X51488072Y-41690000D01*
X51475812Y-41565518D01*
X51439502Y-41445820D01*
X51380537Y-41335506D01*
X51301185Y-41238815D01*
X51204494Y-41159463D01*
X51094180Y-41100498D01*
X51021620Y-41078487D01*
X51153475Y-40946632D01*
X51315990Y-40703411D01*
X51427932Y-40433158D01*
X51485000Y-40146260D01*
X51485000Y-39853740D01*
X51427932Y-39566842D01*
X51315990Y-39296589D01*
X51153475Y-39053368D01*
X50946632Y-38846525D01*
X50772240Y-38730000D01*
X50946632Y-38613475D01*
X51153475Y-38406632D01*
X51315990Y-38163411D01*
X51427932Y-37893158D01*
X51485000Y-37606260D01*
X51485000Y-37313740D01*
X51427932Y-37026842D01*
X51315990Y-36756589D01*
X51278529Y-36700524D01*
X62990000Y-36700524D01*
X62990000Y-36899476D01*
X63028814Y-37094606D01*
X63104950Y-37278414D01*
X63215482Y-37443837D01*
X63356163Y-37584518D01*
X63521586Y-37695050D01*
X63705394Y-37771186D01*
X63900524Y-37810000D01*
X64099476Y-37810000D01*
X64294606Y-37771186D01*
X64478414Y-37695050D01*
X64643837Y-37584518D01*
X64784518Y-37443837D01*
X64895050Y-37278414D01*
X64971186Y-37094606D01*
X65010000Y-36899476D01*
X65010000Y-36700524D01*
X64971186Y-36505394D01*
X64895050Y-36321586D01*
X64784518Y-36156163D01*
X64643837Y-36015482D01*
X64478414Y-35904950D01*
X64294606Y-35828814D01*
X64099476Y-35790000D01*
X63900524Y-35790000D01*
X63705394Y-35828814D01*
X63521586Y-35904950D01*
X63356163Y-36015482D01*
X63215482Y-36156163D01*
X63104950Y-36321586D01*
X63028814Y-36505394D01*
X62990000Y-36700524D01*
X51278529Y-36700524D01*
X51153475Y-36513368D01*
X50946632Y-36306525D01*
X50703411Y-36144010D01*
X50433158Y-36032068D01*
X50146260Y-35975000D01*
X49853740Y-35975000D01*
X49566842Y-36032068D01*
X49296589Y-36144010D01*
X49053368Y-36306525D01*
X48846525Y-36513368D01*
X48684010Y-36756589D01*
X48572068Y-37026842D01*
X48515000Y-37313740D01*
X48515000Y-37606260D01*
X48572068Y-37893158D01*
X48684010Y-38163411D01*
X48846525Y-38406632D01*
X49053368Y-38613475D01*
X49227760Y-38730000D01*
X49053368Y-38846525D01*
X48846525Y-39053368D01*
X48684010Y-39296589D01*
X48572068Y-39566842D01*
X48515000Y-39853740D01*
X48515000Y-40146260D01*
X48572068Y-40433158D01*
X48684010Y-40703411D01*
X48846525Y-40946632D01*
X48978380Y-41078487D01*
X48905820Y-41100498D01*
X48795506Y-41159463D01*
X48698815Y-41238815D01*
X48619463Y-41335506D01*
X48560498Y-41445820D01*
X48524188Y-41565518D01*
X48511928Y-41690000D01*
X46034855Y-41690000D01*
X46123518Y-41601337D01*
X46234050Y-41435914D01*
X46310186Y-41252106D01*
X46349000Y-41056976D01*
X46349000Y-40858024D01*
X46310186Y-40662894D01*
X46234050Y-40479086D01*
X46123518Y-40313663D01*
X45982837Y-40172982D01*
X45817414Y-40062450D01*
X45633606Y-39986314D01*
X45438476Y-39947500D01*
X45239524Y-39947500D01*
X45044394Y-39986314D01*
X44860586Y-40062450D01*
X44695163Y-40172982D01*
X44554482Y-40313663D01*
X44443950Y-40479086D01*
X44367814Y-40662894D01*
X44329000Y-40858024D01*
X37770784Y-40858024D01*
X37817637Y-40826718D01*
X37958318Y-40686037D01*
X38068850Y-40520614D01*
X38144986Y-40336806D01*
X38183800Y-40141676D01*
X38183800Y-39942724D01*
X38144986Y-39747594D01*
X38068850Y-39563786D01*
X37958318Y-39398363D01*
X37817637Y-39257682D01*
X37652214Y-39147150D01*
X37468406Y-39071014D01*
X37273276Y-39032200D01*
X37074324Y-39032200D01*
X36879194Y-39071014D01*
X36695386Y-39147150D01*
X36529963Y-39257682D01*
X36389282Y-39398363D01*
X36278750Y-39563786D01*
X36202614Y-39747594D01*
X36163800Y-39942724D01*
X32658262Y-39942724D01*
X32799914Y-39884050D01*
X32965337Y-39773518D01*
X33106018Y-39632837D01*
X33216550Y-39467414D01*
X33292686Y-39283606D01*
X33331500Y-39088476D01*
X33331500Y-38889524D01*
X33292686Y-38694394D01*
X33216550Y-38510586D01*
X33106018Y-38345163D01*
X32965337Y-38204482D01*
X32799914Y-38093950D01*
X32616106Y-38017814D01*
X32420976Y-37979000D01*
X32222024Y-37979000D01*
X32026894Y-38017814D01*
X31843086Y-38093950D01*
X31677663Y-38204482D01*
X31536982Y-38345163D01*
X31426450Y-38510586D01*
X31350314Y-38694394D01*
X31311500Y-38889524D01*
X30983379Y-38889524D01*
X30933337Y-38839482D01*
X30894861Y-38813773D01*
X30943186Y-38697106D01*
X30982000Y-38501976D01*
X30982000Y-38303024D01*
X30943186Y-38107894D01*
X30867050Y-37924086D01*
X30756518Y-37758663D01*
X30615837Y-37617982D01*
X30450414Y-37507450D01*
X30266606Y-37431314D01*
X30071476Y-37392500D01*
X29872524Y-37392500D01*
X29677394Y-37431314D01*
X29493586Y-37507450D01*
X29328163Y-37617982D01*
X29187482Y-37758663D01*
X29076950Y-37924086D01*
X29000814Y-38107894D01*
X28962000Y-38303024D01*
X21127000Y-38303024D01*
X21127000Y-34254024D01*
X26739500Y-34254024D01*
X26739500Y-34452976D01*
X26778314Y-34648106D01*
X26854450Y-34831914D01*
X26964982Y-34997337D01*
X27105663Y-35138018D01*
X27271086Y-35248550D01*
X27454894Y-35324686D01*
X27650024Y-35363500D01*
X27848976Y-35363500D01*
X28044106Y-35324686D01*
X28227914Y-35248550D01*
X28393337Y-35138018D01*
X28534018Y-34997337D01*
X28644550Y-34831914D01*
X28720686Y-34648106D01*
X28759500Y-34452976D01*
X28759500Y-34254024D01*
X28720686Y-34058894D01*
X28644550Y-33875086D01*
X28534018Y-33709663D01*
X28393337Y-33568982D01*
X28227914Y-33458450D01*
X28088069Y-33400524D01*
X37990000Y-33400524D01*
X37990000Y-33599476D01*
X38028814Y-33794606D01*
X38104950Y-33978414D01*
X38119373Y-34000000D01*
X38104950Y-34021586D01*
X38028814Y-34205394D01*
X37990000Y-34400524D01*
X37990000Y-34599476D01*
X38028814Y-34794606D01*
X38104950Y-34978414D01*
X38119373Y-35000000D01*
X38104950Y-35021586D01*
X38028814Y-35205394D01*
X37990000Y-35400524D01*
X37990000Y-35599476D01*
X38028814Y-35794606D01*
X38104950Y-35978414D01*
X38215482Y-36143837D01*
X38356163Y-36284518D01*
X38521586Y-36395050D01*
X38705394Y-36471186D01*
X38900524Y-36510000D01*
X39099476Y-36510000D01*
X39294606Y-36471186D01*
X39478414Y-36395050D01*
X39643837Y-36284518D01*
X39784518Y-36143837D01*
X39895050Y-35978414D01*
X39971186Y-35794606D01*
X40010000Y-35599476D01*
X40010000Y-35400524D01*
X39971186Y-35205394D01*
X39895050Y-35021586D01*
X39880627Y-35000000D01*
X39895050Y-34978414D01*
X39971186Y-34794606D01*
X40009791Y-34600524D01*
X41190000Y-34600524D01*
X41190000Y-34799476D01*
X41228814Y-34994606D01*
X41304950Y-35178414D01*
X41352782Y-35250000D01*
X41304950Y-35321586D01*
X41228814Y-35505394D01*
X41190000Y-35700524D01*
X41190000Y-35899476D01*
X41228814Y-36094606D01*
X41304950Y-36278414D01*
X41415482Y-36443837D01*
X41556163Y-36584518D01*
X41721586Y-36695050D01*
X41905394Y-36771186D01*
X42100524Y-36810000D01*
X42211985Y-36810000D01*
X42228814Y-36894606D01*
X42304950Y-37078414D01*
X42415482Y-37243837D01*
X42556163Y-37384518D01*
X42721586Y-37495050D01*
X42905394Y-37571186D01*
X43100524Y-37610000D01*
X43299476Y-37610000D01*
X43494606Y-37571186D01*
X43678414Y-37495050D01*
X43843837Y-37384518D01*
X43984518Y-37243837D01*
X44095050Y-37078414D01*
X44171186Y-36894606D01*
X44210000Y-36699476D01*
X44210000Y-36500524D01*
X44171186Y-36305394D01*
X44095050Y-36121586D01*
X43984518Y-35956163D01*
X43843837Y-35815482D01*
X43678414Y-35704950D01*
X43494606Y-35628814D01*
X43299476Y-35590000D01*
X43188015Y-35590000D01*
X43171186Y-35505394D01*
X43095050Y-35321586D01*
X43047218Y-35250000D01*
X43095050Y-35178414D01*
X43171186Y-34994606D01*
X43210000Y-34799476D01*
X43210000Y-34600524D01*
X43171186Y-34405394D01*
X43095050Y-34221586D01*
X43054250Y-34160524D01*
X61821500Y-34160524D01*
X61821500Y-34359476D01*
X61860314Y-34554606D01*
X61936450Y-34738414D01*
X62046982Y-34903837D01*
X62187663Y-35044518D01*
X62353086Y-35155050D01*
X62536894Y-35231186D01*
X62732024Y-35270000D01*
X62930976Y-35270000D01*
X63126106Y-35231186D01*
X63309914Y-35155050D01*
X63434750Y-35071637D01*
X63559586Y-35155050D01*
X63743394Y-35231186D01*
X63938524Y-35270000D01*
X64137476Y-35270000D01*
X64332606Y-35231186D01*
X64516414Y-35155050D01*
X64681837Y-35044518D01*
X64822518Y-34903837D01*
X64933050Y-34738414D01*
X65009186Y-34554606D01*
X65048000Y-34359476D01*
X65048000Y-34160524D01*
X65009186Y-33965394D01*
X64933050Y-33781586D01*
X64822518Y-33616163D01*
X64681837Y-33475482D01*
X64516414Y-33364950D01*
X64332606Y-33288814D01*
X64137476Y-33250000D01*
X63938524Y-33250000D01*
X63743394Y-33288814D01*
X63559586Y-33364950D01*
X63434750Y-33448363D01*
X63309914Y-33364950D01*
X63126106Y-33288814D01*
X62930976Y-33250000D01*
X62732024Y-33250000D01*
X62536894Y-33288814D01*
X62353086Y-33364950D01*
X62187663Y-33475482D01*
X62046982Y-33616163D01*
X61936450Y-33781586D01*
X61860314Y-33965394D01*
X61821500Y-34160524D01*
X43054250Y-34160524D01*
X42984518Y-34056163D01*
X42843837Y-33915482D01*
X42678414Y-33804950D01*
X42494606Y-33728814D01*
X42299476Y-33690000D01*
X42100524Y-33690000D01*
X41905394Y-33728814D01*
X41721586Y-33804950D01*
X41556163Y-33915482D01*
X41415482Y-34056163D01*
X41304950Y-34221586D01*
X41228814Y-34405394D01*
X41190000Y-34600524D01*
X40009791Y-34600524D01*
X40010000Y-34599476D01*
X40010000Y-34400524D01*
X39971186Y-34205394D01*
X39895050Y-34021586D01*
X39880627Y-34000000D01*
X39895050Y-33978414D01*
X39971186Y-33794606D01*
X40010000Y-33599476D01*
X40010000Y-33400524D01*
X39971186Y-33205394D01*
X39895050Y-33021586D01*
X39784518Y-32856163D01*
X39643837Y-32715482D01*
X39478414Y-32604950D01*
X39294606Y-32528814D01*
X39099476Y-32490000D01*
X38900524Y-32490000D01*
X38705394Y-32528814D01*
X38521586Y-32604950D01*
X38356163Y-32715482D01*
X38215482Y-32856163D01*
X38104950Y-33021586D01*
X38028814Y-33205394D01*
X37990000Y-33400524D01*
X28088069Y-33400524D01*
X28044106Y-33382314D01*
X27848976Y-33343500D01*
X27650024Y-33343500D01*
X27454894Y-33382314D01*
X27271086Y-33458450D01*
X27105663Y-33568982D01*
X26964982Y-33709663D01*
X26854450Y-33875086D01*
X26778314Y-34058894D01*
X26739500Y-34254024D01*
X21127000Y-34254024D01*
X21127000Y-31587024D01*
X34232500Y-31587024D01*
X34232500Y-31785976D01*
X34271314Y-31981106D01*
X34347450Y-32164914D01*
X34457982Y-32330337D01*
X34598663Y-32471018D01*
X34764086Y-32581550D01*
X34947894Y-32657686D01*
X35143024Y-32696500D01*
X35341976Y-32696500D01*
X35537106Y-32657686D01*
X35720914Y-32581550D01*
X35886337Y-32471018D01*
X36027018Y-32330337D01*
X36137550Y-32164914D01*
X36213686Y-31981106D01*
X36252500Y-31785976D01*
X36252500Y-31600524D01*
X59890000Y-31600524D01*
X59890000Y-31799476D01*
X59928814Y-31994606D01*
X60004950Y-32178414D01*
X60115482Y-32343837D01*
X60256163Y-32484518D01*
X60421586Y-32595050D01*
X60605394Y-32671186D01*
X60800524Y-32710000D01*
X60999476Y-32710000D01*
X61194606Y-32671186D01*
X61378414Y-32595050D01*
X61543837Y-32484518D01*
X61684518Y-32343837D01*
X61795050Y-32178414D01*
X61871186Y-31994606D01*
X61910000Y-31799476D01*
X61910000Y-31600524D01*
X62890000Y-31600524D01*
X62890000Y-31799476D01*
X62928814Y-31994606D01*
X63004950Y-32178414D01*
X63115482Y-32343837D01*
X63256163Y-32484518D01*
X63421586Y-32595050D01*
X63605394Y-32671186D01*
X63800524Y-32710000D01*
X63999476Y-32710000D01*
X64194606Y-32671186D01*
X64378414Y-32595050D01*
X64543837Y-32484518D01*
X64684518Y-32343837D01*
X64795050Y-32178414D01*
X64871186Y-31994606D01*
X64910000Y-31799476D01*
X64910000Y-31600524D01*
X64871186Y-31405394D01*
X64795050Y-31221586D01*
X64684518Y-31056163D01*
X64543837Y-30915482D01*
X64378414Y-30804950D01*
X64194606Y-30728814D01*
X63999476Y-30690000D01*
X63800524Y-30690000D01*
X63605394Y-30728814D01*
X63421586Y-30804950D01*
X63256163Y-30915482D01*
X63115482Y-31056163D01*
X63004950Y-31221586D01*
X62928814Y-31405394D01*
X62890000Y-31600524D01*
X61910000Y-31600524D01*
X61871186Y-31405394D01*
X61795050Y-31221586D01*
X61684518Y-31056163D01*
X61543837Y-30915482D01*
X61378414Y-30804950D01*
X61194606Y-30728814D01*
X60999476Y-30690000D01*
X60800524Y-30690000D01*
X60605394Y-30728814D01*
X60421586Y-30804950D01*
X60256163Y-30915482D01*
X60115482Y-31056163D01*
X60004950Y-31221586D01*
X59928814Y-31405394D01*
X59890000Y-31600524D01*
X36252500Y-31600524D01*
X36252500Y-31587024D01*
X36213686Y-31391894D01*
X36137550Y-31208086D01*
X36105812Y-31160587D01*
X36140337Y-31137518D01*
X36281018Y-30996837D01*
X36391550Y-30831414D01*
X36467686Y-30647606D01*
X36506500Y-30452476D01*
X36506500Y-30253524D01*
X36467686Y-30058394D01*
X36391550Y-29874586D01*
X36281018Y-29709163D01*
X36140337Y-29568482D01*
X35974914Y-29457950D01*
X35791106Y-29381814D01*
X35595976Y-29343000D01*
X35397024Y-29343000D01*
X35201894Y-29381814D01*
X35018086Y-29457950D01*
X34852663Y-29568482D01*
X34711982Y-29709163D01*
X34601450Y-29874586D01*
X34525314Y-30058394D01*
X34486500Y-30253524D01*
X34486500Y-30452476D01*
X34525314Y-30647606D01*
X34601450Y-30831414D01*
X34633188Y-30878913D01*
X34598663Y-30901982D01*
X34457982Y-31042663D01*
X34347450Y-31208086D01*
X34271314Y-31391894D01*
X34232500Y-31587024D01*
X21127000Y-31587024D01*
X21127000Y-30317024D01*
X27565000Y-30317024D01*
X27565000Y-30515976D01*
X27603814Y-30711106D01*
X27679950Y-30894914D01*
X27790482Y-31060337D01*
X27931163Y-31201018D01*
X28096586Y-31311550D01*
X28280394Y-31387686D01*
X28475524Y-31426500D01*
X28674476Y-31426500D01*
X28869606Y-31387686D01*
X29053414Y-31311550D01*
X29218837Y-31201018D01*
X29359518Y-31060337D01*
X29431520Y-30952579D01*
X29493586Y-30994050D01*
X29677394Y-31070186D01*
X29872524Y-31109000D01*
X30071476Y-31109000D01*
X30266606Y-31070186D01*
X30450414Y-30994050D01*
X30615837Y-30883518D01*
X30756518Y-30742837D01*
X30867050Y-30577414D01*
X30943186Y-30393606D01*
X30982000Y-30198476D01*
X30982000Y-29999524D01*
X30943186Y-29804394D01*
X30867050Y-29620586D01*
X30756518Y-29455163D01*
X30615837Y-29314482D01*
X30450414Y-29203950D01*
X30266606Y-29127814D01*
X30071476Y-29089000D01*
X29872524Y-29089000D01*
X29677394Y-29127814D01*
X29493586Y-29203950D01*
X29328163Y-29314482D01*
X29187482Y-29455163D01*
X29115480Y-29562921D01*
X29053414Y-29521450D01*
X28869606Y-29445314D01*
X28674476Y-29406500D01*
X28475524Y-29406500D01*
X28280394Y-29445314D01*
X28096586Y-29521450D01*
X27931163Y-29631982D01*
X27790482Y-29772663D01*
X27679950Y-29938086D01*
X27603814Y-30121894D01*
X27565000Y-30317024D01*
X21127000Y-30317024D01*
X21127000Y-28094524D01*
X27057000Y-28094524D01*
X27057000Y-28293476D01*
X27095814Y-28488606D01*
X27171950Y-28672414D01*
X27282482Y-28837837D01*
X27423163Y-28978518D01*
X27588586Y-29089050D01*
X27772394Y-29165186D01*
X27967524Y-29204000D01*
X28166476Y-29204000D01*
X28361606Y-29165186D01*
X28545414Y-29089050D01*
X28710837Y-28978518D01*
X28851518Y-28837837D01*
X28962050Y-28672414D01*
X29038186Y-28488606D01*
X29077000Y-28293476D01*
X29077000Y-28094524D01*
X34931000Y-28094524D01*
X34931000Y-28293476D01*
X34969814Y-28488606D01*
X35045950Y-28672414D01*
X35156482Y-28837837D01*
X35297163Y-28978518D01*
X35462586Y-29089050D01*
X35646394Y-29165186D01*
X35841524Y-29204000D01*
X36040476Y-29204000D01*
X36235606Y-29165186D01*
X36419414Y-29089050D01*
X36584837Y-28978518D01*
X36725518Y-28837837D01*
X36836050Y-28672414D01*
X36912186Y-28488606D01*
X36951000Y-28293476D01*
X36951000Y-28094524D01*
X36912186Y-27899394D01*
X36836050Y-27715586D01*
X36725518Y-27550163D01*
X36698379Y-27523024D01*
X47758000Y-27523024D01*
X47758000Y-27721976D01*
X47796814Y-27917106D01*
X47872950Y-28100914D01*
X47983482Y-28266337D01*
X48124163Y-28407018D01*
X48289586Y-28517550D01*
X48473394Y-28593686D01*
X48668524Y-28632500D01*
X48867476Y-28632500D01*
X49062606Y-28593686D01*
X49246414Y-28517550D01*
X49411837Y-28407018D01*
X49552518Y-28266337D01*
X49663050Y-28100914D01*
X49739186Y-27917106D01*
X49778000Y-27721976D01*
X49778000Y-27523024D01*
X49776906Y-27517524D01*
X50240000Y-27517524D01*
X50240000Y-27716476D01*
X50278814Y-27911606D01*
X50354950Y-28095414D01*
X50465482Y-28260837D01*
X50606163Y-28401518D01*
X50771586Y-28512050D01*
X50955394Y-28588186D01*
X51150524Y-28627000D01*
X51349476Y-28627000D01*
X51544606Y-28588186D01*
X51728414Y-28512050D01*
X51893837Y-28401518D01*
X52034518Y-28260837D01*
X52145050Y-28095414D01*
X52221186Y-27911606D01*
X52260000Y-27716476D01*
X52260000Y-27517524D01*
X52221186Y-27322394D01*
X52145050Y-27138586D01*
X52034518Y-26973163D01*
X51893837Y-26832482D01*
X51728414Y-26721950D01*
X51544606Y-26645814D01*
X51349476Y-26607000D01*
X51150524Y-26607000D01*
X50955394Y-26645814D01*
X50771586Y-26721950D01*
X50606163Y-26832482D01*
X50465482Y-26973163D01*
X50354950Y-27138586D01*
X50278814Y-27322394D01*
X50240000Y-27517524D01*
X49776906Y-27517524D01*
X49739186Y-27327894D01*
X49663050Y-27144086D01*
X49552518Y-26978663D01*
X49411837Y-26837982D01*
X49246414Y-26727450D01*
X49062606Y-26651314D01*
X48867476Y-26612500D01*
X48668524Y-26612500D01*
X48473394Y-26651314D01*
X48289586Y-26727450D01*
X48124163Y-26837982D01*
X47983482Y-26978663D01*
X47872950Y-27144086D01*
X47796814Y-27327894D01*
X47758000Y-27523024D01*
X36698379Y-27523024D01*
X36584837Y-27409482D01*
X36419414Y-27298950D01*
X36235606Y-27222814D01*
X36040476Y-27184000D01*
X35841524Y-27184000D01*
X35646394Y-27222814D01*
X35462586Y-27298950D01*
X35297163Y-27409482D01*
X35156482Y-27550163D01*
X35045950Y-27715586D01*
X34969814Y-27899394D01*
X34931000Y-28094524D01*
X29077000Y-28094524D01*
X29038186Y-27899394D01*
X28962050Y-27715586D01*
X28851518Y-27550163D01*
X28710837Y-27409482D01*
X28545414Y-27298950D01*
X28361606Y-27222814D01*
X28166476Y-27184000D01*
X27967524Y-27184000D01*
X27772394Y-27222814D01*
X27588586Y-27298950D01*
X27423163Y-27409482D01*
X27282482Y-27550163D01*
X27171950Y-27715586D01*
X27095814Y-27899394D01*
X27057000Y-28094524D01*
X21127000Y-28094524D01*
X21127000Y-25136295D01*
X21192793Y-25202088D01*
X21657124Y-25512344D01*
X22173061Y-25726052D01*
X22720777Y-25835000D01*
X23279223Y-25835000D01*
X23826939Y-25726052D01*
X24342876Y-25512344D01*
X24378992Y-25488212D01*
X28665000Y-25488212D01*
X28665000Y-25711788D01*
X28708617Y-25931067D01*
X28794176Y-26137624D01*
X28918388Y-26323520D01*
X29076480Y-26481612D01*
X29262376Y-26605824D01*
X29468933Y-26691383D01*
X29688212Y-26735000D01*
X29911788Y-26735000D01*
X30131067Y-26691383D01*
X30337624Y-26605824D01*
X30523520Y-26481612D01*
X30681612Y-26323520D01*
X30805824Y-26137624D01*
X30891383Y-25931067D01*
X30935000Y-25711788D01*
X30935000Y-25488212D01*
X33065000Y-25488212D01*
X33065000Y-25711788D01*
X33108617Y-25931067D01*
X33194176Y-26137624D01*
X33318388Y-26323520D01*
X33476480Y-26481612D01*
X33662376Y-26605824D01*
X33868933Y-26691383D01*
X34088212Y-26735000D01*
X34311788Y-26735000D01*
X34531067Y-26691383D01*
X34737624Y-26605824D01*
X34923520Y-26481612D01*
X35081612Y-26323520D01*
X35205824Y-26137624D01*
X35291383Y-25931067D01*
X35335000Y-25711788D01*
X35335000Y-25488212D01*
X35291383Y-25268933D01*
X35205824Y-25062376D01*
X35081612Y-24876480D01*
X34923520Y-24718388D01*
X34737624Y-24594176D01*
X34531067Y-24508617D01*
X34311788Y-24465000D01*
X34088212Y-24465000D01*
X33868933Y-24508617D01*
X33662376Y-24594176D01*
X33476480Y-24718388D01*
X33318388Y-24876480D01*
X33194176Y-25062376D01*
X33108617Y-25268933D01*
X33065000Y-25488212D01*
X30935000Y-25488212D01*
X30891383Y-25268933D01*
X30805824Y-25062376D01*
X30681612Y-24876480D01*
X30523520Y-24718388D01*
X30337624Y-24594176D01*
X30131067Y-24508617D01*
X29911788Y-24465000D01*
X29688212Y-24465000D01*
X29468933Y-24508617D01*
X29262376Y-24594176D01*
X29076480Y-24718388D01*
X28918388Y-24876480D01*
X28794176Y-25062376D01*
X28708617Y-25268933D01*
X28665000Y-25488212D01*
X24378992Y-25488212D01*
X24807207Y-25202088D01*
X25202088Y-24807207D01*
X25512344Y-24342876D01*
X25726052Y-23826939D01*
X25835000Y-23279223D01*
X25835000Y-22720777D01*
X25817645Y-22633524D01*
X27057000Y-22633524D01*
X27057000Y-22832476D01*
X27095814Y-23027606D01*
X27171950Y-23211414D01*
X27282482Y-23376837D01*
X27423163Y-23517518D01*
X27588586Y-23628050D01*
X27772394Y-23704186D01*
X27967524Y-23743000D01*
X28166476Y-23743000D01*
X28361606Y-23704186D01*
X28545414Y-23628050D01*
X28710837Y-23517518D01*
X28851518Y-23376837D01*
X28962050Y-23211414D01*
X29038186Y-23027606D01*
X29077000Y-22832476D01*
X29077000Y-22633524D01*
X34931000Y-22633524D01*
X34931000Y-22832476D01*
X34969814Y-23027606D01*
X35045950Y-23211414D01*
X35156482Y-23376837D01*
X35297163Y-23517518D01*
X35462586Y-23628050D01*
X35646394Y-23704186D01*
X35841524Y-23743000D01*
X36040476Y-23743000D01*
X36235606Y-23704186D01*
X36419414Y-23628050D01*
X36584837Y-23517518D01*
X36725518Y-23376837D01*
X36836050Y-23211414D01*
X36912186Y-23027606D01*
X36917912Y-22998816D01*
X41465000Y-22998816D01*
X41465000Y-23301184D01*
X41523989Y-23597743D01*
X41639701Y-23877095D01*
X41807688Y-24128505D01*
X42021495Y-24342312D01*
X42272905Y-24510299D01*
X42552257Y-24626011D01*
X42848816Y-24685000D01*
X43151184Y-24685000D01*
X43447743Y-24626011D01*
X43727095Y-24510299D01*
X43978505Y-24342312D01*
X44044944Y-24275873D01*
X44050498Y-24294180D01*
X44109463Y-24404494D01*
X44188815Y-24501185D01*
X44285506Y-24580537D01*
X44395820Y-24639502D01*
X44515518Y-24675812D01*
X44640000Y-24688072D01*
X46440000Y-24688072D01*
X46564482Y-24675812D01*
X46684180Y-24639502D01*
X46794494Y-24580537D01*
X46891185Y-24501185D01*
X46970537Y-24404494D01*
X47029502Y-24294180D01*
X47065812Y-24174482D01*
X47078072Y-24050000D01*
X47078072Y-22310524D01*
X50240000Y-22310524D01*
X50240000Y-22509476D01*
X50278814Y-22704606D01*
X50354950Y-22888414D01*
X50465482Y-23053837D01*
X50606163Y-23194518D01*
X50771586Y-23305050D01*
X50955394Y-23381186D01*
X51150524Y-23420000D01*
X51349476Y-23420000D01*
X51544606Y-23381186D01*
X51728414Y-23305050D01*
X51893837Y-23194518D01*
X52034518Y-23053837D01*
X52145050Y-22888414D01*
X52221186Y-22704606D01*
X52260000Y-22509476D01*
X52260000Y-22310524D01*
X52221186Y-22115394D01*
X52145050Y-21931586D01*
X52034518Y-21766163D01*
X51893837Y-21625482D01*
X51728414Y-21514950D01*
X51544606Y-21438814D01*
X51349476Y-21400000D01*
X51150524Y-21400000D01*
X50955394Y-21438814D01*
X50771586Y-21514950D01*
X50606163Y-21625482D01*
X50465482Y-21766163D01*
X50354950Y-21931586D01*
X50278814Y-22115394D01*
X50240000Y-22310524D01*
X47078072Y-22310524D01*
X47078072Y-22250000D01*
X47065812Y-22125518D01*
X47029502Y-22005820D01*
X46970537Y-21895506D01*
X46891185Y-21798815D01*
X46794494Y-21719463D01*
X46684180Y-21660498D01*
X46564482Y-21624188D01*
X46440000Y-21611928D01*
X44640000Y-21611928D01*
X44515518Y-21624188D01*
X44395820Y-21660498D01*
X44285506Y-21719463D01*
X44188815Y-21798815D01*
X44109463Y-21895506D01*
X44050498Y-22005820D01*
X44044944Y-22024127D01*
X43978505Y-21957688D01*
X43727095Y-21789701D01*
X43447743Y-21673989D01*
X43151184Y-21615000D01*
X42848816Y-21615000D01*
X42552257Y-21673989D01*
X42272905Y-21789701D01*
X42021495Y-21957688D01*
X41807688Y-22171495D01*
X41639701Y-22422905D01*
X41523989Y-22702257D01*
X41465000Y-22998816D01*
X36917912Y-22998816D01*
X36951000Y-22832476D01*
X36951000Y-22633524D01*
X36912186Y-22438394D01*
X36836050Y-22254586D01*
X36725518Y-22089163D01*
X36584837Y-21948482D01*
X36419414Y-21837950D01*
X36235606Y-21761814D01*
X36040476Y-21723000D01*
X35841524Y-21723000D01*
X35646394Y-21761814D01*
X35462586Y-21837950D01*
X35297163Y-21948482D01*
X35156482Y-22089163D01*
X35045950Y-22254586D01*
X34969814Y-22438394D01*
X34931000Y-22633524D01*
X29077000Y-22633524D01*
X29038186Y-22438394D01*
X28962050Y-22254586D01*
X28851518Y-22089163D01*
X28710837Y-21948482D01*
X28545414Y-21837950D01*
X28361606Y-21761814D01*
X28166476Y-21723000D01*
X27967524Y-21723000D01*
X27772394Y-21761814D01*
X27588586Y-21837950D01*
X27423163Y-21948482D01*
X27282482Y-22089163D01*
X27171950Y-22254586D01*
X27095814Y-22438394D01*
X27057000Y-22633524D01*
X25817645Y-22633524D01*
X25726052Y-22173061D01*
X25512344Y-21657124D01*
X25202088Y-21192793D01*
X25136295Y-21127000D01*
X64863705Y-21127000D01*
X64797912Y-21192793D01*
%TD*%
M02*
