M48
; DRILL file {KiCad (5.1.6-0-10_14)} date Tuesday, July 28, 2020 at 10:12:35 PM
; FORMAT={-:-/ absolute / metric / decimal}
; #@! TF.CreationDate,2020-07-28T22:12:35-04:00
; #@! TF.GenerationSoftware,Kicad,Pcbnew,(5.1.6-0-10_14)
; #@! TF.FileFunction,Plated,1,4,PTH
FMAT,2
METRIC
T1C0.400
T2C0.500
T3C0.900
T4C1.000
T5C1.500
T6C2.200
%
G90
G05
T1
X21.35Y-87.0
X21.833Y-85.833
X21.833Y-88.167
X23.0Y-85.35
X23.0Y-88.65
X24.167Y-85.833
X24.167Y-88.167
X24.65Y-87.0
X65.35Y-23.0
X65.833Y-21.833
X65.833Y-24.167
X67.0Y-21.35
X67.0Y-24.65
X68.167Y-21.833
X68.167Y-24.167
X68.65Y-23.0
X65.35Y-87.0
X65.833Y-85.833
X65.833Y-88.167
X67.0Y-85.35
X67.0Y-88.65
X68.167Y-85.833
X68.167Y-88.167
X68.65Y-87.0
X21.35Y-23.0
X21.833Y-21.833
X21.833Y-24.167
X23.0Y-21.35
X23.0Y-24.65
X24.167Y-21.833
X24.167Y-24.167
X24.65Y-23.0
T2
X24.257Y-68.072
X24.257Y-75.438
X25.971Y-42.926
X27.114Y-43.561
X27.749Y-34.353
X28.067Y-22.733
X28.067Y-28.194
X28.194Y-51.625
X28.575Y-30.416
X29.019Y-43.497
X29.972Y-30.099
X29.972Y-38.402
X30.226Y-67.437
X30.29Y-39.624
X32.322Y-38.989
X35.242Y-31.686
X35.496Y-30.353
X35.941Y-22.733
X35.941Y-28.194
X36.0Y-55.0
X36.0Y-56.0
X36.0Y-57.0
X36.386Y-60.452
X37.174Y-40.042
X39.0Y-33.5
X39.0Y-34.5
X39.0Y-35.5
X40.64Y-36.195
X42.164Y-67.501
X42.2Y-34.7
X42.2Y-35.8
X43.2Y-36.6
X43.942Y-45.021
X43.942Y-47.307
X45.339Y-40.957
X48.768Y-27.622
X51.25Y-22.41
X51.25Y-27.617
X60.9Y-31.7
X62.831Y-34.26
X63.9Y-31.7
X64.0Y-36.8
X64.038Y-34.26
T3
X43.0Y-23.15
X45.54Y-23.15
T4
X50.0Y-37.46
X50.0Y-40.0
X50.0Y-42.54
X32.228Y-69.21
X32.228Y-83.71
X34.728Y-69.21
X37.228Y-69.21
X37.228Y-83.71
T5
X40.15Y-56.05
X60.64Y-56.05
T6
X23.0Y-23.0
X23.0Y-87.0
X67.0Y-23.0
X67.0Y-87.0
T5
G00X29.128Y-76.06
M15
G01X29.128Y-77.36
M16
G05
G00X40.328Y-76.06
M15
G01X40.328Y-77.36
M16
G05
T0
M30
