%TF.GenerationSoftware,KiCad,Pcbnew,(5.1.6-0-10_14)*%
%TF.CreationDate,2020-07-28T22:12:12-04:00*%
%TF.ProjectId,uRemote,7552656d-6f74-4652-9e6b-696361645f70,rev?*%
%TF.SameCoordinates,Original*%
%TF.FileFunction,Copper,L4,Bot*%
%TF.FilePolarity,Positive*%
%FSLAX46Y46*%
G04 Gerber Fmt 4.6, Leading zero omitted, Abs format (unit mm)*
G04 Created by KiCad (PCBNEW (5.1.6-0-10_14)) date 2020-07-28 22:12:12*
%MOMM*%
%LPD*%
G01*
G04 APERTURE LIST*
%TA.AperFunction,ComponentPad*%
%ADD10C,3.000000*%
%TD*%
%TA.AperFunction,ComponentPad*%
%ADD11R,3.000000X3.000000*%
%TD*%
%TA.AperFunction,ComponentPad*%
%ADD12R,1.800000X1.800000*%
%TD*%
%TA.AperFunction,ComponentPad*%
%ADD13C,1.800000*%
%TD*%
%TA.AperFunction,ComponentPad*%
%ADD14R,1.700000X1.700000*%
%TD*%
%TA.AperFunction,ComponentPad*%
%ADD15O,1.700000X1.700000*%
%TD*%
%TA.AperFunction,ComponentPad*%
%ADD16C,2.000000*%
%TD*%
%TA.AperFunction,ComponentPad*%
%ADD17R,2.000000X3.200000*%
%TD*%
%TA.AperFunction,ComponentPad*%
%ADD18R,2.000000X2.000000*%
%TD*%
%TA.AperFunction,ComponentPad*%
%ADD19C,4.400000*%
%TD*%
%TA.AperFunction,ComponentPad*%
%ADD20C,0.700000*%
%TD*%
%TA.AperFunction,ViaPad*%
%ADD21C,0.750000*%
%TD*%
%TA.AperFunction,Conductor*%
%ADD22C,0.300000*%
%TD*%
%TA.AperFunction,Conductor*%
%ADD23C,0.500000*%
%TD*%
G04 APERTURE END LIST*
D10*
%TO.P,BT1,2*%
%TO.N,GND*%
X60640000Y-56050000D03*
D11*
%TO.P,BT1,1*%
%TO.N,VCC*%
X40150000Y-56050000D03*
%TD*%
D12*
%TO.P,D5,1*%
%TO.N,Net-(D5-Pad1)*%
X45540000Y-23150000D03*
D13*
%TO.P,D5,2*%
%TO.N,IRLED*%
X43000000Y-23150000D03*
%TD*%
D14*
%TO.P,BOOT0,1*%
%TO.N,VCC*%
X50000000Y-42540000D03*
D15*
%TO.P,BOOT0,2*%
%TO.N,Net-(JP1-Pad2)*%
X50000000Y-40000000D03*
%TO.P,BOOT0,3*%
%TO.N,GND*%
X50000000Y-37460000D03*
%TD*%
D16*
%TO.P,SW1,S1*%
%TO.N,GND*%
X32228500Y-83710400D03*
%TO.P,SW1,S2*%
%TO.N,Net-(R3-Pad1)*%
X37228500Y-83710400D03*
D17*
%TO.P,SW1,MP*%
%TO.N,N/C*%
X29128500Y-76710400D03*
X40328500Y-76710400D03*
D16*
%TO.P,SW1,B*%
%TO.N,Net-(R6-Pad2)*%
X32228500Y-69210400D03*
%TO.P,SW1,C*%
%TO.N,GND*%
X34728500Y-69210400D03*
D18*
%TO.P,SW1,A*%
%TO.N,Net-(R5-Pad2)*%
X37228500Y-69210400D03*
%TD*%
D19*
%TO.P,H1,1*%
%TO.N,N/C*%
X23000000Y-23000000D03*
D20*
X24650000Y-23000000D03*
X24166726Y-24166726D03*
X23000000Y-24650000D03*
X21833274Y-24166726D03*
X21350000Y-23000000D03*
X21833274Y-21833274D03*
X23000000Y-21350000D03*
X24166726Y-21833274D03*
%TD*%
%TO.P,H2,1*%
%TO.N,N/C*%
X24166726Y-85833274D03*
X23000000Y-85350000D03*
X21833274Y-85833274D03*
X21350000Y-87000000D03*
X21833274Y-88166726D03*
X23000000Y-88650000D03*
X24166726Y-88166726D03*
X24650000Y-87000000D03*
D19*
X23000000Y-87000000D03*
%TD*%
%TO.P,H3,1*%
%TO.N,N/C*%
X67000000Y-23000000D03*
D20*
X68650000Y-23000000D03*
X68166726Y-24166726D03*
X67000000Y-24650000D03*
X65833274Y-24166726D03*
X65350000Y-23000000D03*
X65833274Y-21833274D03*
X67000000Y-21350000D03*
X68166726Y-21833274D03*
%TD*%
%TO.P,H4,1*%
%TO.N,N/C*%
X68166726Y-85833274D03*
X67000000Y-85350000D03*
X65833274Y-85833274D03*
X65350000Y-87000000D03*
X65833274Y-88166726D03*
X67000000Y-88650000D03*
X68166726Y-88166726D03*
X68650000Y-87000000D03*
D19*
X67000000Y-87000000D03*
%TD*%
D21*
%TO.N,GND*%
X28067000Y-28194000D03*
X35941000Y-28194000D03*
X35941000Y-22733000D03*
X28067000Y-22733000D03*
%TO.N,SWCLK*%
X64000000Y-36800000D03*
%TO.N,SWDIO*%
X63900000Y-31700000D03*
%TO.N,RST*%
X60900000Y-31700000D03*
%TO.N,Net-(C5-Pad1)*%
X32321500Y-38989000D03*
X29972000Y-38402500D03*
%TO.N,Net-(FB1-Pad1)*%
X35496500Y-30353000D03*
X28575000Y-30416500D03*
%TO.N,RST*%
X42200000Y-34700000D03*
%TO.N,ChanA*%
X39000000Y-34500000D03*
X36000000Y-56000000D03*
%TO.N,ChanB*%
X39000000Y-35500000D03*
X36000000Y-55000000D03*
%TO.N,Button*%
X36000000Y-57000000D03*
X39000000Y-33500000D03*
%TO.N,SWDIO*%
X42200000Y-35800000D03*
%TO.N,SWCLK*%
X43200000Y-36600000D03*
%TO.N,GND*%
X29972000Y-30099000D03*
X43942000Y-45021500D03*
X43942000Y-47307500D03*
X25971500Y-42926000D03*
X30289500Y-39624000D03*
X51250000Y-27617000D03*
X51250000Y-22410000D03*
X42164000Y-67500500D03*
X30226000Y-67437000D03*
X36385500Y-60452000D03*
X64038000Y-34260000D03*
X62831500Y-34260000D03*
X35242500Y-31686500D03*
X45339000Y-40957500D03*
X37173800Y-40042200D03*
X27749500Y-34353500D03*
X48768000Y-27622500D03*
%TO.N,VCC*%
X40640000Y-36195000D03*
X29019500Y-43497500D03*
X27114500Y-43561000D03*
X24257000Y-68072000D03*
X24257000Y-75438000D03*
X28194000Y-51625500D03*
%TD*%
D22*
%TO.N,Net-(C5-Pad1)*%
X31735000Y-38402500D02*
X29972000Y-38402500D01*
X32321500Y-38989000D02*
X31735000Y-38402500D01*
D23*
%TO.N,Net-(FB1-Pad1)*%
X29082501Y-30924001D02*
X28575000Y-30416500D01*
X34925499Y-30924001D02*
X29082501Y-30924001D01*
X35496500Y-30353000D02*
X34925499Y-30924001D01*
D22*
%TO.N,RST*%
X57900000Y-34700000D02*
X60900000Y-31700000D01*
X42200000Y-34700000D02*
X57900000Y-34700000D01*
%TO.N,ChanA*%
X36000000Y-56000000D02*
X35469670Y-56000000D01*
X38469670Y-34500000D02*
X39000000Y-34500000D01*
X35274999Y-55805329D02*
X35274999Y-37694671D01*
X35274999Y-37694671D02*
X38469670Y-34500000D01*
X35469670Y-56000000D02*
X35274999Y-55805329D01*
%TO.N,ChanB*%
X35775009Y-54775009D02*
X36000000Y-55000000D01*
X38176790Y-35500000D02*
X35775009Y-37901781D01*
X35775009Y-37901781D02*
X35775009Y-54775009D01*
X39000000Y-35500000D02*
X38176790Y-35500000D01*
%TO.N,Button*%
X38762550Y-33500000D02*
X39000000Y-33500000D01*
X34774989Y-37487561D02*
X38762550Y-33500000D01*
X35469670Y-57000000D02*
X34774989Y-56305319D01*
X34774989Y-56305319D02*
X34774989Y-37487561D01*
X36000000Y-57000000D02*
X35469670Y-57000000D01*
%TO.N,SWDIO*%
X42200000Y-35800000D02*
X42799990Y-35200010D01*
X60399990Y-35200010D02*
X63900000Y-31700000D01*
X42799990Y-35200010D02*
X60399990Y-35200010D01*
%TO.N,SWCLK*%
X43200000Y-36600000D02*
X44099980Y-35700020D01*
X62900020Y-35700020D02*
X64000000Y-36800000D01*
X44099980Y-35700020D02*
X62900020Y-35700020D01*
%TD*%
M02*
