%TF.GenerationSoftware,KiCad,Pcbnew,(5.1.6-0-10_14)*%
%TF.CreationDate,2020-07-28T22:12:12-04:00*%
%TF.ProjectId,uRemote,7552656d-6f74-4652-9e6b-696361645f70,rev?*%
%TF.SameCoordinates,Original*%
%TF.FileFunction,Copper,L1,Top*%
%TF.FilePolarity,Positive*%
%FSLAX46Y46*%
G04 Gerber Fmt 4.6, Leading zero omitted, Abs format (unit mm)*
G04 Created by KiCad (PCBNEW (5.1.6-0-10_14)) date 2020-07-28 22:12:12*
%MOMM*%
%LPD*%
G01*
G04 APERTURE LIST*
%TA.AperFunction,SMDPad,CuDef*%
%ADD10R,3.150000X1.000000*%
%TD*%
%TA.AperFunction,SMDPad,CuDef*%
%ADD11R,0.450000X1.450000*%
%TD*%
%TA.AperFunction,ComponentPad*%
%ADD12C,3.000000*%
%TD*%
%TA.AperFunction,ComponentPad*%
%ADD13R,3.000000X3.000000*%
%TD*%
%TA.AperFunction,SMDPad,CuDef*%
%ADD14R,0.600000X1.500000*%
%TD*%
%TA.AperFunction,ComponentPad*%
%ADD15R,1.800000X1.800000*%
%TD*%
%TA.AperFunction,ComponentPad*%
%ADD16C,1.800000*%
%TD*%
%TA.AperFunction,SMDPad,CuDef*%
%ADD17R,0.500000X2.000000*%
%TD*%
%TA.AperFunction,SMDPad,CuDef*%
%ADD18R,2.000000X1.700000*%
%TD*%
%TA.AperFunction,ComponentPad*%
%ADD19R,1.700000X1.700000*%
%TD*%
%TA.AperFunction,ComponentPad*%
%ADD20O,1.700000X1.700000*%
%TD*%
%TA.AperFunction,ComponentPad*%
%ADD21C,2.000000*%
%TD*%
%TA.AperFunction,ComponentPad*%
%ADD22R,2.000000X3.200000*%
%TD*%
%TA.AperFunction,ComponentPad*%
%ADD23R,2.000000X2.000000*%
%TD*%
%TA.AperFunction,SMDPad,CuDef*%
%ADD24R,1.000000X1.700000*%
%TD*%
%TA.AperFunction,SMDPad,CuDef*%
%ADD25R,1.200000X0.400000*%
%TD*%
%TA.AperFunction,SMDPad,CuDef*%
%ADD26R,1.220000X0.650000*%
%TD*%
%TA.AperFunction,ComponentPad*%
%ADD27C,4.400000*%
%TD*%
%TA.AperFunction,ComponentPad*%
%ADD28C,0.700000*%
%TD*%
%TA.AperFunction,ViaPad*%
%ADD29C,0.750000*%
%TD*%
%TA.AperFunction,Conductor*%
%ADD30C,0.500000*%
%TD*%
%TA.AperFunction,Conductor*%
%ADD31C,1.000000*%
%TD*%
%TA.AperFunction,Conductor*%
%ADD32C,0.300000*%
%TD*%
G04 APERTURE END LIST*
D10*
%TO.P,J1,10*%
%TO.N,Net-(J1-Pad10)*%
X65025000Y-41880000D03*
%TO.P,J1,9*%
%TO.N,Net-(J1-Pad9)*%
X59975000Y-41880000D03*
%TO.P,J1,8*%
%TO.N,Net-(J1-Pad8)*%
X65025000Y-39340000D03*
%TO.P,J1,7*%
%TO.N,Net-(J1-Pad7)*%
X59975000Y-39340000D03*
%TO.P,J1,6*%
%TO.N,SWCLK*%
X65025000Y-36800000D03*
%TO.P,J1,5*%
%TO.N,Net-(J1-Pad5)*%
X59975000Y-36800000D03*
%TO.P,J1,4*%
%TO.N,GND*%
X65025000Y-34260000D03*
%TO.P,J1,3*%
X59975000Y-34260000D03*
%TO.P,J1,2*%
%TO.N,SWDIO*%
X65025000Y-31720000D03*
%TO.P,J1,1*%
%TO.N,RST*%
X59975000Y-31720000D03*
%TD*%
D11*
%TO.P,U4,1*%
%TO.N,BOOT0*%
X43116700Y-32092200D03*
%TO.P,U4,2*%
%TO.N,LED*%
X42466700Y-32092200D03*
%TO.P,U4,3*%
%TO.N,IRLED*%
X41816700Y-32092200D03*
%TO.P,U4,4*%
%TO.N,RST*%
X41166700Y-32092200D03*
%TO.P,U4,5*%
%TO.N,ChanB*%
X40516700Y-32092200D03*
%TO.P,U4,6*%
%TO.N,ChanA*%
X39866700Y-32092200D03*
%TO.P,U4,7*%
%TO.N,Button*%
X39216700Y-32092200D03*
%TO.P,U4,8*%
%TO.N,Net-(U4-Pad8)*%
X39216700Y-37992200D03*
%TO.P,U4,9*%
%TO.N,GND*%
X39866700Y-37992200D03*
%TO.P,U4,10*%
%TO.N,VCC*%
X40516700Y-37992200D03*
%TO.P,U4,11*%
%TO.N,TX*%
X41166700Y-37992200D03*
%TO.P,U4,12*%
%TO.N,RX*%
X41816700Y-37992200D03*
%TO.P,U4,13*%
%TO.N,SWDIO*%
X42466700Y-37992200D03*
%TO.P,U4,14*%
%TO.N,SWCLK*%
X43116700Y-37992200D03*
%TD*%
%TO.P,R1,2*%
%TO.N,D-*%
%TA.AperFunction,SMDPad,CuDef*%
G36*
G01*
X32550000Y-33243750D02*
X32550000Y-34156250D01*
G75*
G02*
X32306250Y-34400000I-243750J0D01*
G01*
X31818750Y-34400000D01*
G75*
G02*
X31575000Y-34156250I0J243750D01*
G01*
X31575000Y-33243750D01*
G75*
G02*
X31818750Y-33000000I243750J0D01*
G01*
X32306250Y-33000000D01*
G75*
G02*
X32550000Y-33243750I0J-243750D01*
G01*
G37*
%TD.AperFunction*%
%TO.P,R1,1*%
%TO.N,Net-(R1-Pad1)*%
%TA.AperFunction,SMDPad,CuDef*%
G36*
G01*
X34425000Y-33243750D02*
X34425000Y-34156250D01*
G75*
G02*
X34181250Y-34400000I-243750J0D01*
G01*
X33693750Y-34400000D01*
G75*
G02*
X33450000Y-34156250I0J243750D01*
G01*
X33450000Y-33243750D01*
G75*
G02*
X33693750Y-33000000I243750J0D01*
G01*
X34181250Y-33000000D01*
G75*
G02*
X34425000Y-33243750I0J-243750D01*
G01*
G37*
%TD.AperFunction*%
%TD*%
D12*
%TO.P,BT1,2*%
%TO.N,GND*%
X60640000Y-56050000D03*
D13*
%TO.P,BT1,1*%
%TO.N,VCC*%
X40150000Y-56050000D03*
%TD*%
D14*
%TO.P,U1,14*%
%TO.N,VCC*%
X28190000Y-53300000D03*
%TO.P,U1,13*%
%TO.N,N/C*%
X29460000Y-53300000D03*
%TO.P,U1,12*%
X30730000Y-53300000D03*
%TO.P,U1,11*%
X32000000Y-53300000D03*
%TO.P,U1,10*%
X33270000Y-53300000D03*
%TO.P,U1,9*%
X34540000Y-53300000D03*
%TO.P,U1,8*%
X35810000Y-53300000D03*
%TO.P,U1,7*%
%TO.N,GND*%
X35810000Y-58700000D03*
%TO.P,U1,6*%
%TO.N,Button*%
X34540000Y-58700000D03*
%TO.P,U1,5*%
%TO.N,Net-(C4-Pad1)*%
X33270000Y-58700000D03*
%TO.P,U1,4*%
%TO.N,ChanA*%
X32000000Y-58700000D03*
%TO.P,U1,3*%
%TO.N,Net-(C7-Pad1)*%
X30730000Y-58700000D03*
%TO.P,U1,2*%
%TO.N,ChanB*%
X29460000Y-58700000D03*
%TO.P,U1,1*%
%TO.N,Net-(C6-Pad2)*%
X28190000Y-58700000D03*
%TD*%
%TO.P,FB1,2*%
%TO.N,VBUS*%
%TA.AperFunction,SMDPad,CuDef*%
G36*
G01*
X24043750Y-39100000D02*
X24956250Y-39100000D01*
G75*
G02*
X25200000Y-39343750I0J-243750D01*
G01*
X25200000Y-39831250D01*
G75*
G02*
X24956250Y-40075000I-243750J0D01*
G01*
X24043750Y-40075000D01*
G75*
G02*
X23800000Y-39831250I0J243750D01*
G01*
X23800000Y-39343750D01*
G75*
G02*
X24043750Y-39100000I243750J0D01*
G01*
G37*
%TD.AperFunction*%
%TO.P,FB1,1*%
%TO.N,Net-(FB1-Pad1)*%
%TA.AperFunction,SMDPad,CuDef*%
G36*
G01*
X24043750Y-37225000D02*
X24956250Y-37225000D01*
G75*
G02*
X25200000Y-37468750I0J-243750D01*
G01*
X25200000Y-37956250D01*
G75*
G02*
X24956250Y-38200000I-243750J0D01*
G01*
X24043750Y-38200000D01*
G75*
G02*
X23800000Y-37956250I0J243750D01*
G01*
X23800000Y-37468750D01*
G75*
G02*
X24043750Y-37225000I243750J0D01*
G01*
G37*
%TD.AperFunction*%
%TD*%
%TO.P,C1,2*%
%TO.N,D+*%
%TA.AperFunction,SMDPad,CuDef*%
G36*
G01*
X29950000Y-36206250D02*
X29950000Y-35293750D01*
G75*
G02*
X30193750Y-35050000I243750J0D01*
G01*
X30681250Y-35050000D01*
G75*
G02*
X30925000Y-35293750I0J-243750D01*
G01*
X30925000Y-36206250D01*
G75*
G02*
X30681250Y-36450000I-243750J0D01*
G01*
X30193750Y-36450000D01*
G75*
G02*
X29950000Y-36206250I0J243750D01*
G01*
G37*
%TD.AperFunction*%
%TO.P,C1,1*%
%TO.N,GND*%
%TA.AperFunction,SMDPad,CuDef*%
G36*
G01*
X28075000Y-36206250D02*
X28075000Y-35293750D01*
G75*
G02*
X28318750Y-35050000I243750J0D01*
G01*
X28806250Y-35050000D01*
G75*
G02*
X29050000Y-35293750I0J-243750D01*
G01*
X29050000Y-36206250D01*
G75*
G02*
X28806250Y-36450000I-243750J0D01*
G01*
X28318750Y-36450000D01*
G75*
G02*
X28075000Y-36206250I0J243750D01*
G01*
G37*
%TD.AperFunction*%
%TD*%
%TO.P,C2,2*%
%TO.N,GND*%
%TA.AperFunction,SMDPad,CuDef*%
G36*
G01*
X26097050Y-40972900D02*
X27009550Y-40972900D01*
G75*
G02*
X27253300Y-41216650I0J-243750D01*
G01*
X27253300Y-41704150D01*
G75*
G02*
X27009550Y-41947900I-243750J0D01*
G01*
X26097050Y-41947900D01*
G75*
G02*
X25853300Y-41704150I0J243750D01*
G01*
X25853300Y-41216650D01*
G75*
G02*
X26097050Y-40972900I243750J0D01*
G01*
G37*
%TD.AperFunction*%
%TO.P,C2,1*%
%TO.N,VBUS*%
%TA.AperFunction,SMDPad,CuDef*%
G36*
G01*
X26097050Y-39097900D02*
X27009550Y-39097900D01*
G75*
G02*
X27253300Y-39341650I0J-243750D01*
G01*
X27253300Y-39829150D01*
G75*
G02*
X27009550Y-40072900I-243750J0D01*
G01*
X26097050Y-40072900D01*
G75*
G02*
X25853300Y-39829150I0J243750D01*
G01*
X25853300Y-39341650D01*
G75*
G02*
X26097050Y-39097900I243750J0D01*
G01*
G37*
%TD.AperFunction*%
%TD*%
%TO.P,C3,1*%
%TO.N,D-*%
%TA.AperFunction,SMDPad,CuDef*%
G36*
G01*
X31575000Y-32106250D02*
X31575000Y-31193750D01*
G75*
G02*
X31818750Y-30950000I243750J0D01*
G01*
X32306250Y-30950000D01*
G75*
G02*
X32550000Y-31193750I0J-243750D01*
G01*
X32550000Y-32106250D01*
G75*
G02*
X32306250Y-32350000I-243750J0D01*
G01*
X31818750Y-32350000D01*
G75*
G02*
X31575000Y-32106250I0J243750D01*
G01*
G37*
%TD.AperFunction*%
%TO.P,C3,2*%
%TO.N,GND*%
%TA.AperFunction,SMDPad,CuDef*%
G36*
G01*
X33450000Y-32106250D02*
X33450000Y-31193750D01*
G75*
G02*
X33693750Y-30950000I243750J0D01*
G01*
X34181250Y-30950000D01*
G75*
G02*
X34425000Y-31193750I0J-243750D01*
G01*
X34425000Y-32106250D01*
G75*
G02*
X34181250Y-32350000I-243750J0D01*
G01*
X33693750Y-32350000D01*
G75*
G02*
X33450000Y-32106250I0J243750D01*
G01*
G37*
%TD.AperFunction*%
%TD*%
%TO.P,C4,1*%
%TO.N,Net-(C4-Pad1)*%
%TA.AperFunction,SMDPad,CuDef*%
G36*
G01*
X41721450Y-63783900D02*
X42633950Y-63783900D01*
G75*
G02*
X42877700Y-64027650I0J-243750D01*
G01*
X42877700Y-64515150D01*
G75*
G02*
X42633950Y-64758900I-243750J0D01*
G01*
X41721450Y-64758900D01*
G75*
G02*
X41477700Y-64515150I0J243750D01*
G01*
X41477700Y-64027650D01*
G75*
G02*
X41721450Y-63783900I243750J0D01*
G01*
G37*
%TD.AperFunction*%
%TO.P,C4,2*%
%TO.N,GND*%
%TA.AperFunction,SMDPad,CuDef*%
G36*
G01*
X41721450Y-65658900D02*
X42633950Y-65658900D01*
G75*
G02*
X42877700Y-65902650I0J-243750D01*
G01*
X42877700Y-66390150D01*
G75*
G02*
X42633950Y-66633900I-243750J0D01*
G01*
X41721450Y-66633900D01*
G75*
G02*
X41477700Y-66390150I0J243750D01*
G01*
X41477700Y-65902650D01*
G75*
G02*
X41721450Y-65658900I243750J0D01*
G01*
G37*
%TD.AperFunction*%
%TD*%
%TO.P,C5,2*%
%TO.N,GND*%
%TA.AperFunction,SMDPad,CuDef*%
G36*
G01*
X27009550Y-36516900D02*
X26097050Y-36516900D01*
G75*
G02*
X25853300Y-36273150I0J243750D01*
G01*
X25853300Y-35785650D01*
G75*
G02*
X26097050Y-35541900I243750J0D01*
G01*
X27009550Y-35541900D01*
G75*
G02*
X27253300Y-35785650I0J-243750D01*
G01*
X27253300Y-36273150D01*
G75*
G02*
X27009550Y-36516900I-243750J0D01*
G01*
G37*
%TD.AperFunction*%
%TO.P,C5,1*%
%TO.N,Net-(C5-Pad1)*%
%TA.AperFunction,SMDPad,CuDef*%
G36*
G01*
X27009550Y-38391900D02*
X26097050Y-38391900D01*
G75*
G02*
X25853300Y-38148150I0J243750D01*
G01*
X25853300Y-37660650D01*
G75*
G02*
X26097050Y-37416900I243750J0D01*
G01*
X27009550Y-37416900D01*
G75*
G02*
X27253300Y-37660650I0J-243750D01*
G01*
X27253300Y-38148150D01*
G75*
G02*
X27009550Y-38391900I-243750J0D01*
G01*
G37*
%TD.AperFunction*%
%TD*%
%TO.P,C6,2*%
%TO.N,Net-(C6-Pad2)*%
%TA.AperFunction,SMDPad,CuDef*%
G36*
G01*
X30657850Y-64733500D02*
X29745350Y-64733500D01*
G75*
G02*
X29501600Y-64489750I0J243750D01*
G01*
X29501600Y-64002250D01*
G75*
G02*
X29745350Y-63758500I243750J0D01*
G01*
X30657850Y-63758500D01*
G75*
G02*
X30901600Y-64002250I0J-243750D01*
G01*
X30901600Y-64489750D01*
G75*
G02*
X30657850Y-64733500I-243750J0D01*
G01*
G37*
%TD.AperFunction*%
%TO.P,C6,1*%
%TO.N,GND*%
%TA.AperFunction,SMDPad,CuDef*%
G36*
G01*
X30657850Y-66608500D02*
X29745350Y-66608500D01*
G75*
G02*
X29501600Y-66364750I0J243750D01*
G01*
X29501600Y-65877250D01*
G75*
G02*
X29745350Y-65633500I243750J0D01*
G01*
X30657850Y-65633500D01*
G75*
G02*
X30901600Y-65877250I0J-243750D01*
G01*
X30901600Y-66364750D01*
G75*
G02*
X30657850Y-66608500I-243750J0D01*
G01*
G37*
%TD.AperFunction*%
%TD*%
%TO.P,C7,1*%
%TO.N,Net-(C7-Pad1)*%
%TA.AperFunction,SMDPad,CuDef*%
G36*
G01*
X34749150Y-63796600D02*
X35661650Y-63796600D01*
G75*
G02*
X35905400Y-64040350I0J-243750D01*
G01*
X35905400Y-64527850D01*
G75*
G02*
X35661650Y-64771600I-243750J0D01*
G01*
X34749150Y-64771600D01*
G75*
G02*
X34505400Y-64527850I0J243750D01*
G01*
X34505400Y-64040350D01*
G75*
G02*
X34749150Y-63796600I243750J0D01*
G01*
G37*
%TD.AperFunction*%
%TO.P,C7,2*%
%TO.N,GND*%
%TA.AperFunction,SMDPad,CuDef*%
G36*
G01*
X34749150Y-65671600D02*
X35661650Y-65671600D01*
G75*
G02*
X35905400Y-65915350I0J-243750D01*
G01*
X35905400Y-66402850D01*
G75*
G02*
X35661650Y-66646600I-243750J0D01*
G01*
X34749150Y-66646600D01*
G75*
G02*
X34505400Y-66402850I0J243750D01*
G01*
X34505400Y-65915350D01*
G75*
G02*
X34749150Y-65671600I243750J0D01*
G01*
G37*
%TD.AperFunction*%
%TD*%
%TO.P,C8,1*%
%TO.N,VCC*%
%TA.AperFunction,SMDPad,CuDef*%
G36*
G01*
X40654200Y-39585950D02*
X40654200Y-40498450D01*
G75*
G02*
X40410450Y-40742200I-243750J0D01*
G01*
X39922950Y-40742200D01*
G75*
G02*
X39679200Y-40498450I0J243750D01*
G01*
X39679200Y-39585950D01*
G75*
G02*
X39922950Y-39342200I243750J0D01*
G01*
X40410450Y-39342200D01*
G75*
G02*
X40654200Y-39585950I0J-243750D01*
G01*
G37*
%TD.AperFunction*%
%TO.P,C8,2*%
%TO.N,GND*%
%TA.AperFunction,SMDPad,CuDef*%
G36*
G01*
X38779200Y-39585950D02*
X38779200Y-40498450D01*
G75*
G02*
X38535450Y-40742200I-243750J0D01*
G01*
X38047950Y-40742200D01*
G75*
G02*
X37804200Y-40498450I0J243750D01*
G01*
X37804200Y-39585950D01*
G75*
G02*
X38047950Y-39342200I243750J0D01*
G01*
X38535450Y-39342200D01*
G75*
G02*
X38779200Y-39585950I0J-243750D01*
G01*
G37*
%TD.AperFunction*%
%TD*%
%TO.P,RX,2*%
%TO.N,RXLED*%
%TA.AperFunction,SMDPad,CuDef*%
G36*
G01*
X37765500Y-44550250D02*
X37765500Y-45462750D01*
G75*
G02*
X37521750Y-45706500I-243750J0D01*
G01*
X37034250Y-45706500D01*
G75*
G02*
X36790500Y-45462750I0J243750D01*
G01*
X36790500Y-44550250D01*
G75*
G02*
X37034250Y-44306500I243750J0D01*
G01*
X37521750Y-44306500D01*
G75*
G02*
X37765500Y-44550250I0J-243750D01*
G01*
G37*
%TD.AperFunction*%
%TO.P,RX,1*%
%TO.N,Net-(D1-Pad1)*%
%TA.AperFunction,SMDPad,CuDef*%
G36*
G01*
X39640500Y-44550250D02*
X39640500Y-45462750D01*
G75*
G02*
X39396750Y-45706500I-243750J0D01*
G01*
X38909250Y-45706500D01*
G75*
G02*
X38665500Y-45462750I0J243750D01*
G01*
X38665500Y-44550250D01*
G75*
G02*
X38909250Y-44306500I243750J0D01*
G01*
X39396750Y-44306500D01*
G75*
G02*
X39640500Y-44550250I0J-243750D01*
G01*
G37*
%TD.AperFunction*%
%TD*%
%TO.P,TX,1*%
%TO.N,Net-(D2-Pad1)*%
%TA.AperFunction,SMDPad,CuDef*%
G36*
G01*
X39640500Y-46836250D02*
X39640500Y-47748750D01*
G75*
G02*
X39396750Y-47992500I-243750J0D01*
G01*
X38909250Y-47992500D01*
G75*
G02*
X38665500Y-47748750I0J243750D01*
G01*
X38665500Y-46836250D01*
G75*
G02*
X38909250Y-46592500I243750J0D01*
G01*
X39396750Y-46592500D01*
G75*
G02*
X39640500Y-46836250I0J-243750D01*
G01*
G37*
%TD.AperFunction*%
%TO.P,TX,2*%
%TO.N,TXLED*%
%TA.AperFunction,SMDPad,CuDef*%
G36*
G01*
X37765500Y-46836250D02*
X37765500Y-47748750D01*
G75*
G02*
X37521750Y-47992500I-243750J0D01*
G01*
X37034250Y-47992500D01*
G75*
G02*
X36790500Y-47748750I0J243750D01*
G01*
X36790500Y-46836250D01*
G75*
G02*
X37034250Y-46592500I243750J0D01*
G01*
X37521750Y-46592500D01*
G75*
G02*
X37765500Y-46836250I0J-243750D01*
G01*
G37*
%TD.AperFunction*%
%TD*%
%TO.P,CHRG,2*%
%TO.N,VCC*%
%TA.AperFunction,SMDPad,CuDef*%
G36*
G01*
X29525300Y-44643750D02*
X29525300Y-45556250D01*
G75*
G02*
X29281550Y-45800000I-243750J0D01*
G01*
X28794050Y-45800000D01*
G75*
G02*
X28550300Y-45556250I0J243750D01*
G01*
X28550300Y-44643750D01*
G75*
G02*
X28794050Y-44400000I243750J0D01*
G01*
X29281550Y-44400000D01*
G75*
G02*
X29525300Y-44643750I0J-243750D01*
G01*
G37*
%TD.AperFunction*%
%TO.P,CHRG,1*%
%TO.N,Net-(D3-Pad1)*%
%TA.AperFunction,SMDPad,CuDef*%
G36*
G01*
X31400300Y-44643750D02*
X31400300Y-45556250D01*
G75*
G02*
X31156550Y-45800000I-243750J0D01*
G01*
X30669050Y-45800000D01*
G75*
G02*
X30425300Y-45556250I0J243750D01*
G01*
X30425300Y-44643750D01*
G75*
G02*
X30669050Y-44400000I243750J0D01*
G01*
X31156550Y-44400000D01*
G75*
G02*
X31400300Y-44643750I0J-243750D01*
G01*
G37*
%TD.AperFunction*%
%TD*%
%TO.P,LED,1*%
%TO.N,Net-(D4-Pad1)*%
%TA.AperFunction,SMDPad,CuDef*%
G36*
G01*
X45756250Y-36475000D02*
X44843750Y-36475000D01*
G75*
G02*
X44600000Y-36231250I0J243750D01*
G01*
X44600000Y-35743750D01*
G75*
G02*
X44843750Y-35500000I243750J0D01*
G01*
X45756250Y-35500000D01*
G75*
G02*
X46000000Y-35743750I0J-243750D01*
G01*
X46000000Y-36231250D01*
G75*
G02*
X45756250Y-36475000I-243750J0D01*
G01*
G37*
%TD.AperFunction*%
%TO.P,LED,2*%
%TO.N,LED*%
%TA.AperFunction,SMDPad,CuDef*%
G36*
G01*
X45756250Y-34600000D02*
X44843750Y-34600000D01*
G75*
G02*
X44600000Y-34356250I0J243750D01*
G01*
X44600000Y-33868750D01*
G75*
G02*
X44843750Y-33625000I243750J0D01*
G01*
X45756250Y-33625000D01*
G75*
G02*
X46000000Y-33868750I0J-243750D01*
G01*
X46000000Y-34356250D01*
G75*
G02*
X45756250Y-34600000I-243750J0D01*
G01*
G37*
%TD.AperFunction*%
%TD*%
D15*
%TO.P,D5,1*%
%TO.N,Net-(D5-Pad1)*%
X45540000Y-23150000D03*
D16*
%TO.P,D5,2*%
%TO.N,IRLED*%
X43000000Y-23150000D03*
%TD*%
D17*
%TO.P,J2,1*%
%TO.N,Net-(FB1-Pad1)*%
X33600000Y-28300000D03*
%TO.P,J2,2*%
%TO.N,D-*%
X32800000Y-28300000D03*
%TO.P,J2,3*%
%TO.N,D+*%
X32000000Y-28300000D03*
%TO.P,J2,4*%
%TO.N,Net-(J2-Pad4)*%
X31200000Y-28300000D03*
%TO.P,J2,5*%
%TO.N,GND*%
X30400000Y-28300000D03*
D18*
%TO.P,J2,6*%
X36450000Y-28200000D03*
X36450000Y-22750000D03*
X27550000Y-28200000D03*
X27550000Y-22750000D03*
%TD*%
D19*
%TO.P,BOOT0,1*%
%TO.N,VCC*%
X50000000Y-42540000D03*
D20*
%TO.P,BOOT0,2*%
%TO.N,Net-(JP1-Pad2)*%
X50000000Y-40000000D03*
%TO.P,BOOT0,3*%
%TO.N,GND*%
X50000000Y-37460000D03*
%TD*%
%TO.P,R2,1*%
%TO.N,D+*%
%TA.AperFunction,SMDPad,CuDef*%
G36*
G01*
X31575000Y-36206250D02*
X31575000Y-35293750D01*
G75*
G02*
X31818750Y-35050000I243750J0D01*
G01*
X32306250Y-35050000D01*
G75*
G02*
X32550000Y-35293750I0J-243750D01*
G01*
X32550000Y-36206250D01*
G75*
G02*
X32306250Y-36450000I-243750J0D01*
G01*
X31818750Y-36450000D01*
G75*
G02*
X31575000Y-36206250I0J243750D01*
G01*
G37*
%TD.AperFunction*%
%TO.P,R2,2*%
%TO.N,Net-(R2-Pad2)*%
%TA.AperFunction,SMDPad,CuDef*%
G36*
G01*
X33450000Y-36206250D02*
X33450000Y-35293750D01*
G75*
G02*
X33693750Y-35050000I243750J0D01*
G01*
X34181250Y-35050000D01*
G75*
G02*
X34425000Y-35293750I0J-243750D01*
G01*
X34425000Y-36206250D01*
G75*
G02*
X34181250Y-36450000I-243750J0D01*
G01*
X33693750Y-36450000D01*
G75*
G02*
X33450000Y-36206250I0J243750D01*
G01*
G37*
%TD.AperFunction*%
%TD*%
%TO.P,R3,2*%
%TO.N,Net-(C4-Pad1)*%
%TA.AperFunction,SMDPad,CuDef*%
G36*
G01*
X40601950Y-64758900D02*
X39689450Y-64758900D01*
G75*
G02*
X39445700Y-64515150I0J243750D01*
G01*
X39445700Y-64027650D01*
G75*
G02*
X39689450Y-63783900I243750J0D01*
G01*
X40601950Y-63783900D01*
G75*
G02*
X40845700Y-64027650I0J-243750D01*
G01*
X40845700Y-64515150D01*
G75*
G02*
X40601950Y-64758900I-243750J0D01*
G01*
G37*
%TD.AperFunction*%
%TO.P,R3,1*%
%TO.N,Net-(R3-Pad1)*%
%TA.AperFunction,SMDPad,CuDef*%
G36*
G01*
X40601950Y-66633900D02*
X39689450Y-66633900D01*
G75*
G02*
X39445700Y-66390150I0J243750D01*
G01*
X39445700Y-65902650D01*
G75*
G02*
X39689450Y-65658900I243750J0D01*
G01*
X40601950Y-65658900D01*
G75*
G02*
X40845700Y-65902650I0J-243750D01*
G01*
X40845700Y-66390150D01*
G75*
G02*
X40601950Y-66633900I-243750J0D01*
G01*
G37*
%TD.AperFunction*%
%TD*%
%TO.P,R4,1*%
%TO.N,VCC*%
%TA.AperFunction,SMDPad,CuDef*%
G36*
G01*
X23760100Y-74199550D02*
X23760100Y-73287050D01*
G75*
G02*
X24003850Y-73043300I243750J0D01*
G01*
X24491350Y-73043300D01*
G75*
G02*
X24735100Y-73287050I0J-243750D01*
G01*
X24735100Y-74199550D01*
G75*
G02*
X24491350Y-74443300I-243750J0D01*
G01*
X24003850Y-74443300D01*
G75*
G02*
X23760100Y-74199550I0J243750D01*
G01*
G37*
%TD.AperFunction*%
%TO.P,R4,2*%
%TO.N,Net-(R3-Pad1)*%
%TA.AperFunction,SMDPad,CuDef*%
G36*
G01*
X25635100Y-74199550D02*
X25635100Y-73287050D01*
G75*
G02*
X25878850Y-73043300I243750J0D01*
G01*
X26366350Y-73043300D01*
G75*
G02*
X26610100Y-73287050I0J-243750D01*
G01*
X26610100Y-74199550D01*
G75*
G02*
X26366350Y-74443300I-243750J0D01*
G01*
X25878850Y-74443300D01*
G75*
G02*
X25635100Y-74199550I0J243750D01*
G01*
G37*
%TD.AperFunction*%
%TD*%
%TO.P,R5,2*%
%TO.N,Net-(R5-Pad2)*%
%TA.AperFunction,SMDPad,CuDef*%
G36*
G01*
X25638900Y-72167550D02*
X25638900Y-71255050D01*
G75*
G02*
X25882650Y-71011300I243750J0D01*
G01*
X26370150Y-71011300D01*
G75*
G02*
X26613900Y-71255050I0J-243750D01*
G01*
X26613900Y-72167550D01*
G75*
G02*
X26370150Y-72411300I-243750J0D01*
G01*
X25882650Y-72411300D01*
G75*
G02*
X25638900Y-72167550I0J243750D01*
G01*
G37*
%TD.AperFunction*%
%TO.P,R5,1*%
%TO.N,VCC*%
%TA.AperFunction,SMDPad,CuDef*%
G36*
G01*
X23763900Y-72167550D02*
X23763900Y-71255050D01*
G75*
G02*
X24007650Y-71011300I243750J0D01*
G01*
X24495150Y-71011300D01*
G75*
G02*
X24738900Y-71255050I0J-243750D01*
G01*
X24738900Y-72167550D01*
G75*
G02*
X24495150Y-72411300I-243750J0D01*
G01*
X24007650Y-72411300D01*
G75*
G02*
X23763900Y-72167550I0J243750D01*
G01*
G37*
%TD.AperFunction*%
%TD*%
%TO.P,R6,2*%
%TO.N,Net-(R6-Pad2)*%
%TA.AperFunction,SMDPad,CuDef*%
G36*
G01*
X25638900Y-70123850D02*
X25638900Y-69211350D01*
G75*
G02*
X25882650Y-68967600I243750J0D01*
G01*
X26370150Y-68967600D01*
G75*
G02*
X26613900Y-69211350I0J-243750D01*
G01*
X26613900Y-70123850D01*
G75*
G02*
X26370150Y-70367600I-243750J0D01*
G01*
X25882650Y-70367600D01*
G75*
G02*
X25638900Y-70123850I0J243750D01*
G01*
G37*
%TD.AperFunction*%
%TO.P,R6,1*%
%TO.N,VCC*%
%TA.AperFunction,SMDPad,CuDef*%
G36*
G01*
X23763900Y-70123850D02*
X23763900Y-69211350D01*
G75*
G02*
X24007650Y-68967600I243750J0D01*
G01*
X24495150Y-68967600D01*
G75*
G02*
X24738900Y-69211350I0J-243750D01*
G01*
X24738900Y-70123850D01*
G75*
G02*
X24495150Y-70367600I-243750J0D01*
G01*
X24007650Y-70367600D01*
G75*
G02*
X23763900Y-70123850I0J243750D01*
G01*
G37*
%TD.AperFunction*%
%TD*%
%TO.P,R7,1*%
%TO.N,Net-(JP1-Pad2)*%
%TA.AperFunction,SMDPad,CuDef*%
G36*
G01*
X47475000Y-31543750D02*
X47475000Y-32456250D01*
G75*
G02*
X47231250Y-32700000I-243750J0D01*
G01*
X46743750Y-32700000D01*
G75*
G02*
X46500000Y-32456250I0J243750D01*
G01*
X46500000Y-31543750D01*
G75*
G02*
X46743750Y-31300000I243750J0D01*
G01*
X47231250Y-31300000D01*
G75*
G02*
X47475000Y-31543750I0J-243750D01*
G01*
G37*
%TD.AperFunction*%
%TO.P,R7,2*%
%TO.N,BOOT0*%
%TA.AperFunction,SMDPad,CuDef*%
G36*
G01*
X45600000Y-31543750D02*
X45600000Y-32456250D01*
G75*
G02*
X45356250Y-32700000I-243750J0D01*
G01*
X44868750Y-32700000D01*
G75*
G02*
X44625000Y-32456250I0J243750D01*
G01*
X44625000Y-31543750D01*
G75*
G02*
X44868750Y-31300000I243750J0D01*
G01*
X45356250Y-31300000D01*
G75*
G02*
X45600000Y-31543750I0J-243750D01*
G01*
G37*
%TD.AperFunction*%
%TD*%
%TO.P,R8,2*%
%TO.N,Net-(R6-Pad2)*%
%TA.AperFunction,SMDPad,CuDef*%
G36*
G01*
X31777350Y-65646200D02*
X32689850Y-65646200D01*
G75*
G02*
X32933600Y-65889950I0J-243750D01*
G01*
X32933600Y-66377450D01*
G75*
G02*
X32689850Y-66621200I-243750J0D01*
G01*
X31777350Y-66621200D01*
G75*
G02*
X31533600Y-66377450I0J243750D01*
G01*
X31533600Y-65889950D01*
G75*
G02*
X31777350Y-65646200I243750J0D01*
G01*
G37*
%TD.AperFunction*%
%TO.P,R8,1*%
%TO.N,Net-(C6-Pad2)*%
%TA.AperFunction,SMDPad,CuDef*%
G36*
G01*
X31777350Y-63771200D02*
X32689850Y-63771200D01*
G75*
G02*
X32933600Y-64014950I0J-243750D01*
G01*
X32933600Y-64502450D01*
G75*
G02*
X32689850Y-64746200I-243750J0D01*
G01*
X31777350Y-64746200D01*
G75*
G02*
X31533600Y-64502450I0J243750D01*
G01*
X31533600Y-64014950D01*
G75*
G02*
X31777350Y-63771200I243750J0D01*
G01*
G37*
%TD.AperFunction*%
%TD*%
%TO.P,R9,1*%
%TO.N,Net-(C7-Pad1)*%
%TA.AperFunction,SMDPad,CuDef*%
G36*
G01*
X36781150Y-63796600D02*
X37693650Y-63796600D01*
G75*
G02*
X37937400Y-64040350I0J-243750D01*
G01*
X37937400Y-64527850D01*
G75*
G02*
X37693650Y-64771600I-243750J0D01*
G01*
X36781150Y-64771600D01*
G75*
G02*
X36537400Y-64527850I0J243750D01*
G01*
X36537400Y-64040350D01*
G75*
G02*
X36781150Y-63796600I243750J0D01*
G01*
G37*
%TD.AperFunction*%
%TO.P,R9,2*%
%TO.N,Net-(R5-Pad2)*%
%TA.AperFunction,SMDPad,CuDef*%
G36*
G01*
X36781150Y-65671600D02*
X37693650Y-65671600D01*
G75*
G02*
X37937400Y-65915350I0J-243750D01*
G01*
X37937400Y-66402850D01*
G75*
G02*
X37693650Y-66646600I-243750J0D01*
G01*
X36781150Y-66646600D01*
G75*
G02*
X36537400Y-66402850I0J243750D01*
G01*
X36537400Y-65915350D01*
G75*
G02*
X36781150Y-65671600I243750J0D01*
G01*
G37*
%TD.AperFunction*%
%TD*%
%TO.P,R10,2*%
%TO.N,Net-(D1-Pad1)*%
%TA.AperFunction,SMDPad,CuDef*%
G36*
G01*
X41448500Y-44550250D02*
X41448500Y-45462750D01*
G75*
G02*
X41204750Y-45706500I-243750J0D01*
G01*
X40717250Y-45706500D01*
G75*
G02*
X40473500Y-45462750I0J243750D01*
G01*
X40473500Y-44550250D01*
G75*
G02*
X40717250Y-44306500I243750J0D01*
G01*
X41204750Y-44306500D01*
G75*
G02*
X41448500Y-44550250I0J-243750D01*
G01*
G37*
%TD.AperFunction*%
%TO.P,R10,1*%
%TO.N,GND*%
%TA.AperFunction,SMDPad,CuDef*%
G36*
G01*
X43323500Y-44550250D02*
X43323500Y-45462750D01*
G75*
G02*
X43079750Y-45706500I-243750J0D01*
G01*
X42592250Y-45706500D01*
G75*
G02*
X42348500Y-45462750I0J243750D01*
G01*
X42348500Y-44550250D01*
G75*
G02*
X42592250Y-44306500I243750J0D01*
G01*
X43079750Y-44306500D01*
G75*
G02*
X43323500Y-44550250I0J-243750D01*
G01*
G37*
%TD.AperFunction*%
%TD*%
%TO.P,R11,1*%
%TO.N,GND*%
%TA.AperFunction,SMDPad,CuDef*%
G36*
G01*
X43323500Y-46836250D02*
X43323500Y-47748750D01*
G75*
G02*
X43079750Y-47992500I-243750J0D01*
G01*
X42592250Y-47992500D01*
G75*
G02*
X42348500Y-47748750I0J243750D01*
G01*
X42348500Y-46836250D01*
G75*
G02*
X42592250Y-46592500I243750J0D01*
G01*
X43079750Y-46592500D01*
G75*
G02*
X43323500Y-46836250I0J-243750D01*
G01*
G37*
%TD.AperFunction*%
%TO.P,R11,2*%
%TO.N,Net-(D2-Pad1)*%
%TA.AperFunction,SMDPad,CuDef*%
G36*
G01*
X41448500Y-46836250D02*
X41448500Y-47748750D01*
G75*
G02*
X41204750Y-47992500I-243750J0D01*
G01*
X40717250Y-47992500D01*
G75*
G02*
X40473500Y-47748750I0J243750D01*
G01*
X40473500Y-46836250D01*
G75*
G02*
X40717250Y-46592500I243750J0D01*
G01*
X41204750Y-46592500D01*
G75*
G02*
X41448500Y-46836250I0J-243750D01*
G01*
G37*
%TD.AperFunction*%
%TD*%
%TO.P,R12,1*%
%TO.N,Net-(D3-Pad1)*%
%TA.AperFunction,SMDPad,CuDef*%
G36*
G01*
X31400300Y-46809550D02*
X31400300Y-47722050D01*
G75*
G02*
X31156550Y-47965800I-243750J0D01*
G01*
X30669050Y-47965800D01*
G75*
G02*
X30425300Y-47722050I0J243750D01*
G01*
X30425300Y-46809550D01*
G75*
G02*
X30669050Y-46565800I243750J0D01*
G01*
X31156550Y-46565800D01*
G75*
G02*
X31400300Y-46809550I0J-243750D01*
G01*
G37*
%TD.AperFunction*%
%TO.P,R12,2*%
%TO.N,Net-(R12-Pad2)*%
%TA.AperFunction,SMDPad,CuDef*%
G36*
G01*
X29525300Y-46809550D02*
X29525300Y-47722050D01*
G75*
G02*
X29281550Y-47965800I-243750J0D01*
G01*
X28794050Y-47965800D01*
G75*
G02*
X28550300Y-47722050I0J243750D01*
G01*
X28550300Y-46809550D01*
G75*
G02*
X28794050Y-46565800I243750J0D01*
G01*
X29281550Y-46565800D01*
G75*
G02*
X29525300Y-46809550I0J-243750D01*
G01*
G37*
%TD.AperFunction*%
%TD*%
%TO.P,R13,1*%
%TO.N,Net-(R13-Pad1)*%
%TA.AperFunction,SMDPad,CuDef*%
G36*
G01*
X23991000Y-49233350D02*
X23991000Y-48320850D01*
G75*
G02*
X24234750Y-48077100I243750J0D01*
G01*
X24722250Y-48077100D01*
G75*
G02*
X24966000Y-48320850I0J-243750D01*
G01*
X24966000Y-49233350D01*
G75*
G02*
X24722250Y-49477100I-243750J0D01*
G01*
X24234750Y-49477100D01*
G75*
G02*
X23991000Y-49233350I0J243750D01*
G01*
G37*
%TD.AperFunction*%
%TO.P,R13,2*%
%TO.N,GND*%
%TA.AperFunction,SMDPad,CuDef*%
G36*
G01*
X25866000Y-49233350D02*
X25866000Y-48320850D01*
G75*
G02*
X26109750Y-48077100I243750J0D01*
G01*
X26597250Y-48077100D01*
G75*
G02*
X26841000Y-48320850I0J-243750D01*
G01*
X26841000Y-49233350D01*
G75*
G02*
X26597250Y-49477100I-243750J0D01*
G01*
X26109750Y-49477100D01*
G75*
G02*
X25866000Y-49233350I0J243750D01*
G01*
G37*
%TD.AperFunction*%
%TD*%
%TO.P,R14,1*%
%TO.N,GND*%
%TA.AperFunction,SMDPad,CuDef*%
G36*
G01*
X45756250Y-40125000D02*
X44843750Y-40125000D01*
G75*
G02*
X44600000Y-39881250I0J243750D01*
G01*
X44600000Y-39393750D01*
G75*
G02*
X44843750Y-39150000I243750J0D01*
G01*
X45756250Y-39150000D01*
G75*
G02*
X46000000Y-39393750I0J-243750D01*
G01*
X46000000Y-39881250D01*
G75*
G02*
X45756250Y-40125000I-243750J0D01*
G01*
G37*
%TD.AperFunction*%
%TO.P,R14,2*%
%TO.N,Net-(D4-Pad1)*%
%TA.AperFunction,SMDPad,CuDef*%
G36*
G01*
X45756250Y-38250000D02*
X44843750Y-38250000D01*
G75*
G02*
X44600000Y-38006250I0J243750D01*
G01*
X44600000Y-37518750D01*
G75*
G02*
X44843750Y-37275000I243750J0D01*
G01*
X45756250Y-37275000D01*
G75*
G02*
X46000000Y-37518750I0J-243750D01*
G01*
X46000000Y-38006250D01*
G75*
G02*
X45756250Y-38250000I-243750J0D01*
G01*
G37*
%TD.AperFunction*%
%TD*%
%TO.P,R15,2*%
%TO.N,Net-(D5-Pad1)*%
%TA.AperFunction,SMDPad,CuDef*%
G36*
G01*
X46032000Y-27166250D02*
X46032000Y-28078750D01*
G75*
G02*
X45788250Y-28322500I-243750J0D01*
G01*
X45300750Y-28322500D01*
G75*
G02*
X45057000Y-28078750I0J243750D01*
G01*
X45057000Y-27166250D01*
G75*
G02*
X45300750Y-26922500I243750J0D01*
G01*
X45788250Y-26922500D01*
G75*
G02*
X46032000Y-27166250I0J-243750D01*
G01*
G37*
%TD.AperFunction*%
%TO.P,R15,1*%
%TO.N,GND*%
%TA.AperFunction,SMDPad,CuDef*%
G36*
G01*
X47907000Y-27166250D02*
X47907000Y-28078750D01*
G75*
G02*
X47663250Y-28322500I-243750J0D01*
G01*
X47175750Y-28322500D01*
G75*
G02*
X46932000Y-28078750I0J243750D01*
G01*
X46932000Y-27166250D01*
G75*
G02*
X47175750Y-26922500I243750J0D01*
G01*
X47663250Y-26922500D01*
G75*
G02*
X47907000Y-27166250I0J-243750D01*
G01*
G37*
%TD.AperFunction*%
%TD*%
D21*
%TO.P,SW1,S1*%
%TO.N,GND*%
X32228500Y-83710400D03*
%TO.P,SW1,S2*%
%TO.N,Net-(R3-Pad1)*%
X37228500Y-83710400D03*
D22*
%TO.P,SW1,MP*%
%TO.N,N/C*%
X29128500Y-76710400D03*
X40328500Y-76710400D03*
D21*
%TO.P,SW1,B*%
%TO.N,Net-(R6-Pad2)*%
X32228500Y-69210400D03*
%TO.P,SW1,C*%
%TO.N,GND*%
X34728500Y-69210400D03*
D23*
%TO.P,SW1,A*%
%TO.N,Net-(R5-Pad2)*%
X37228500Y-69210400D03*
%TD*%
D24*
%TO.P,RESET,2*%
%TO.N,RST*%
X55050000Y-21900000D03*
X55050000Y-28200000D03*
%TO.P,RESET,1*%
%TO.N,GND*%
X51250000Y-21900000D03*
X51250000Y-28200000D03*
%TD*%
D25*
%TO.P,U2,1*%
%TO.N,RX*%
X33950000Y-42122500D03*
%TO.P,U2,2*%
%TO.N,Net-(U2-Pad2)*%
X33950000Y-41487500D03*
%TO.P,U2,3*%
%TO.N,Net-(C5-Pad1)*%
X33950000Y-40852500D03*
%TO.P,U2,4*%
%TO.N,TX*%
X33950000Y-40217500D03*
%TO.P,U2,5*%
%TO.N,GND*%
X33950000Y-39582500D03*
%TO.P,U2,6*%
%TO.N,Net-(U2-Pad6)*%
X33950000Y-38947500D03*
%TO.P,U2,7*%
%TO.N,RXLED*%
X33950000Y-38312500D03*
%TO.P,U2,8*%
%TO.N,Net-(R2-Pad2)*%
X33950000Y-37677500D03*
%TO.P,U2,9*%
%TO.N,Net-(R1-Pad1)*%
X28750000Y-37677500D03*
%TO.P,U2,10*%
%TO.N,Net-(C5-Pad1)*%
X28750000Y-38312500D03*
%TO.P,U2,11*%
X28750000Y-38947500D03*
%TO.P,U2,12*%
%TO.N,VBUS*%
X28750000Y-39582500D03*
%TO.P,U2,13*%
%TO.N,GND*%
X28750000Y-40217500D03*
%TO.P,U2,14*%
%TO.N,TXLED*%
X28750000Y-40852500D03*
%TO.P,U2,15*%
%TO.N,Net-(U2-Pad15)*%
X28750000Y-41487500D03*
%TO.P,U2,16*%
%TO.N,Net-(U2-Pad16)*%
X28750000Y-42122500D03*
%TD*%
D26*
%TO.P,U3,1*%
%TO.N,Net-(R12-Pad2)*%
X27107000Y-46806100D03*
%TO.P,U3,2*%
%TO.N,GND*%
X27107000Y-45856100D03*
%TO.P,U3,3*%
%TO.N,VCC*%
X27107000Y-44906100D03*
%TO.P,U3,4*%
%TO.N,VBUS*%
X24487000Y-44906100D03*
%TO.P,U3,5*%
%TO.N,Net-(R13-Pad1)*%
X24487000Y-46806100D03*
%TD*%
D27*
%TO.P,H1,1*%
%TO.N,N/C*%
X23000000Y-23000000D03*
D28*
X24650000Y-23000000D03*
X24166726Y-24166726D03*
X23000000Y-24650000D03*
X21833274Y-24166726D03*
X21350000Y-23000000D03*
X21833274Y-21833274D03*
X23000000Y-21350000D03*
X24166726Y-21833274D03*
%TD*%
%TO.P,H2,1*%
%TO.N,N/C*%
X24166726Y-85833274D03*
X23000000Y-85350000D03*
X21833274Y-85833274D03*
X21350000Y-87000000D03*
X21833274Y-88166726D03*
X23000000Y-88650000D03*
X24166726Y-88166726D03*
X24650000Y-87000000D03*
D27*
X23000000Y-87000000D03*
%TD*%
%TO.P,H3,1*%
%TO.N,N/C*%
X67000000Y-23000000D03*
D28*
X68650000Y-23000000D03*
X68166726Y-24166726D03*
X67000000Y-24650000D03*
X65833274Y-24166726D03*
X65350000Y-23000000D03*
X65833274Y-21833274D03*
X67000000Y-21350000D03*
X68166726Y-21833274D03*
%TD*%
%TO.P,H4,1*%
%TO.N,N/C*%
X68166726Y-85833274D03*
X67000000Y-85350000D03*
X65833274Y-85833274D03*
X65350000Y-87000000D03*
X65833274Y-88166726D03*
X67000000Y-88650000D03*
X68166726Y-88166726D03*
X68650000Y-87000000D03*
D27*
X67000000Y-87000000D03*
%TD*%
D29*
%TO.N,GND*%
X28067000Y-28194000D03*
X35941000Y-28194000D03*
X35941000Y-22733000D03*
X28067000Y-22733000D03*
%TO.N,SWCLK*%
X64000000Y-36800000D03*
%TO.N,SWDIO*%
X63900000Y-31700000D03*
%TO.N,RST*%
X60900000Y-31700000D03*
%TO.N,Net-(C5-Pad1)*%
X32321500Y-38989000D03*
X29972000Y-38402500D03*
%TO.N,Net-(FB1-Pad1)*%
X35496500Y-30353000D03*
X28575000Y-30416500D03*
%TO.N,RST*%
X42200000Y-34700000D03*
%TO.N,ChanA*%
X39000000Y-34500000D03*
X36000000Y-56000000D03*
%TO.N,ChanB*%
X39000000Y-35500000D03*
X36000000Y-55000000D03*
%TO.N,Button*%
X36000000Y-57000000D03*
X39000000Y-33500000D03*
%TO.N,SWDIO*%
X42200000Y-35800000D03*
%TO.N,SWCLK*%
X43200000Y-36600000D03*
%TO.N,GND*%
X29972000Y-30099000D03*
X43942000Y-45021500D03*
X43942000Y-47307500D03*
X25971500Y-42926000D03*
X30289500Y-39624000D03*
X51250000Y-27617000D03*
X51250000Y-22410000D03*
X42164000Y-67500500D03*
X30226000Y-67437000D03*
X36385500Y-60452000D03*
X64038000Y-34260000D03*
X62831500Y-34260000D03*
X35242500Y-31686500D03*
X45339000Y-40957500D03*
X37173800Y-40042200D03*
X27749500Y-34353500D03*
X48768000Y-27622500D03*
%TO.N,VCC*%
X40640000Y-36195000D03*
X29019500Y-43497500D03*
X27114500Y-43561000D03*
X24257000Y-68072000D03*
X24257000Y-75438000D03*
X28194000Y-51625500D03*
%TD*%
D30*
%TO.N,D+*%
X30437500Y-31593874D02*
X30437500Y-35750000D01*
X32000000Y-30031374D02*
X30437500Y-31593874D01*
X32000000Y-28300000D02*
X32000000Y-30031374D01*
D31*
X30437500Y-35750000D02*
X32062500Y-35750000D01*
%TO.N,VBUS*%
X26551200Y-39587500D02*
X26553300Y-39585400D01*
X24500000Y-39587500D02*
X26551200Y-39587500D01*
D32*
X26556200Y-39582500D02*
X26553300Y-39585400D01*
X28750000Y-39582500D02*
X26556200Y-39582500D01*
D31*
X24500000Y-44893100D02*
X24487000Y-44906100D01*
X24500000Y-39587500D02*
X24500000Y-44893100D01*
D30*
%TO.N,D-*%
X32800000Y-30912500D02*
X32062500Y-31650000D01*
X32800000Y-28300000D02*
X32800000Y-30912500D01*
D31*
X32062500Y-33700000D02*
X32062500Y-31650000D01*
%TO.N,Net-(C4-Pad1)*%
X42177700Y-64271400D02*
X40145700Y-64271400D01*
D30*
X39208390Y-63334090D02*
X40145700Y-64271400D01*
X33270000Y-58700000D02*
X33270000Y-59770000D01*
X36834090Y-63334090D02*
X39208390Y-63334090D01*
X33270000Y-59770000D02*
X36834090Y-63334090D01*
D32*
%TO.N,Net-(C5-Pad1)*%
X26961400Y-38312500D02*
X26553300Y-37904400D01*
X28750000Y-38312500D02*
X26961400Y-38312500D01*
X28750000Y-38312500D02*
X28750000Y-38947500D01*
X32321500Y-40124000D02*
X32321500Y-38989000D01*
X33050000Y-40852500D02*
X32321500Y-40124000D01*
X33950000Y-40852500D02*
X33050000Y-40852500D01*
X29882000Y-38312500D02*
X29972000Y-38402500D01*
X28750000Y-38312500D02*
X29882000Y-38312500D01*
D31*
%TO.N,Net-(C6-Pad2)*%
X32220900Y-64246000D02*
X32233600Y-64258700D01*
X30201600Y-64246000D02*
X32220900Y-64246000D01*
D30*
X28190000Y-59800000D02*
X30201600Y-61811600D01*
X28190000Y-59800000D02*
X28190000Y-58700000D01*
X30201600Y-61811600D02*
X30201600Y-64246000D01*
D31*
%TO.N,Net-(C7-Pad1)*%
X37237400Y-64284100D02*
X35205400Y-64284100D01*
D30*
X30730000Y-59808700D02*
X35205400Y-64284100D01*
X30730000Y-59808700D02*
X30730000Y-58700000D01*
D32*
%TO.N,RXLED*%
X35403998Y-45006500D02*
X37278000Y-45006500D01*
X31596499Y-41199001D02*
X35403998Y-45006500D01*
X31596499Y-38640999D02*
X31596499Y-41199001D01*
X31973499Y-38263999D02*
X31596499Y-38640999D01*
X33628499Y-38263999D02*
X31973499Y-38263999D01*
X33677000Y-38312500D02*
X33628499Y-38263999D01*
X33950000Y-38312500D02*
X33677000Y-38312500D01*
D31*
%TO.N,Net-(D1-Pad1)*%
X39153000Y-45006500D02*
X40961000Y-45006500D01*
%TO.N,Net-(D2-Pad1)*%
X39153000Y-47292500D02*
X40961000Y-47292500D01*
D32*
%TO.N,TXLED*%
X36982878Y-47292500D02*
X37278000Y-47292500D01*
X30542878Y-40852500D02*
X36982878Y-47292500D01*
X28750000Y-40852500D02*
X30542878Y-40852500D01*
D31*
%TO.N,Net-(D3-Pad1)*%
X30912800Y-45100000D02*
X30912800Y-47265800D01*
%TO.N,Net-(D4-Pad1)*%
X45300000Y-35987500D02*
X45300000Y-37762500D01*
D32*
%TO.N,LED*%
X43462000Y-34112500D02*
X45300000Y-34112500D01*
X42466700Y-33117200D02*
X43462000Y-34112500D01*
X42466700Y-32092200D02*
X42466700Y-33117200D01*
%TO.N,Net-(D5-Pad1)*%
X45540000Y-27618000D02*
X45544500Y-27622500D01*
X45540000Y-23150000D02*
X45540000Y-27618000D01*
%TO.N,IRLED*%
X41816700Y-24333300D02*
X43000000Y-23150000D01*
X41816700Y-32092200D02*
X41816700Y-24333300D01*
D30*
%TO.N,Net-(FB1-Pad1)*%
X33600000Y-28456500D02*
X35496500Y-30353000D01*
X33600000Y-28300000D02*
X33600000Y-28456500D01*
X24500000Y-34491500D02*
X24500000Y-37712500D01*
X28575000Y-30416500D02*
X24500000Y-34491500D01*
%TO.N,Net-(JP1-Pad2)*%
X46987500Y-36987500D02*
X50000000Y-40000000D01*
X46987500Y-32000000D02*
X46987500Y-36987500D01*
D32*
%TO.N,Net-(R1-Pad1)*%
X31674706Y-37677500D02*
X28750000Y-37677500D01*
X33099990Y-34537510D02*
X33099990Y-36252216D01*
X33099990Y-36252216D02*
X31674706Y-37677500D01*
X33937500Y-33700000D02*
X33099990Y-34537510D01*
%TO.N,Net-(R2-Pad2)*%
X33950000Y-35762500D02*
X33937500Y-35750000D01*
X33950000Y-37677500D02*
X33950000Y-35762500D01*
D31*
%TO.N,Net-(R3-Pad1)*%
X40145700Y-69553202D02*
X40145700Y-66146400D01*
X35955602Y-73743300D02*
X40145700Y-69553202D01*
X26122600Y-73743300D02*
X35955602Y-73743300D01*
X35955602Y-82437502D02*
X37228500Y-83710400D01*
X35955602Y-73743300D02*
X35955602Y-82437502D01*
%TO.N,Net-(R5-Pad2)*%
X37237400Y-69201500D02*
X37228500Y-69210400D01*
X37237400Y-66159100D02*
X37237400Y-69201500D01*
X37228500Y-69226402D02*
X37228500Y-69210400D01*
X34743602Y-71711300D02*
X37228500Y-69226402D01*
X26126400Y-71711300D02*
X34743602Y-71711300D01*
%TO.N,Net-(R6-Pad2)*%
X32228500Y-66138800D02*
X32233600Y-66133700D01*
X32228500Y-69210400D02*
X32228500Y-66138800D01*
X31771300Y-69667600D02*
X32228500Y-69210400D01*
X26126400Y-69667600D02*
X31771300Y-69667600D01*
D32*
%TO.N,BOOT0*%
X45020300Y-32092200D02*
X45112500Y-32000000D01*
X43116700Y-32092200D02*
X45020300Y-32092200D01*
D30*
%TO.N,Net-(R12-Pad2)*%
X27107000Y-46806100D02*
X28578100Y-46806100D01*
D31*
%TO.N,Net-(R13-Pad1)*%
X24478500Y-46814600D02*
X24487000Y-46806100D01*
X24478500Y-48777100D02*
X24478500Y-46814600D01*
%TO.N,RST*%
X55050000Y-28200000D02*
X55050000Y-21900000D01*
D32*
X41166700Y-33666700D02*
X42200000Y-34700000D01*
X41166700Y-32092200D02*
X41166700Y-33666700D01*
D30*
X55050000Y-28200000D02*
X55050000Y-30094500D01*
X56675500Y-31720000D02*
X59975000Y-31720000D01*
X55050000Y-30094500D02*
X56675500Y-31720000D01*
D32*
%TO.N,RX*%
X41816700Y-40639026D02*
X41816700Y-37992200D01*
X41816700Y-41190420D02*
X41816700Y-40639026D01*
X40884620Y-42122500D02*
X41816700Y-41190420D01*
X33950000Y-42122500D02*
X40884620Y-42122500D01*
%TO.N,TX*%
X36504990Y-41622490D02*
X35100000Y-40217500D01*
X40677510Y-41622490D02*
X36504990Y-41622490D01*
X35100000Y-40217500D02*
X33950000Y-40217500D01*
X41166700Y-41133300D02*
X40677510Y-41622490D01*
X41166700Y-37992200D02*
X41166700Y-41133300D01*
%TO.N,ChanA*%
X32000000Y-57650000D02*
X33650000Y-56000000D01*
X39073002Y-34500000D02*
X39000000Y-34500000D01*
X39866700Y-33706302D02*
X39073002Y-34500000D01*
X39866700Y-32092200D02*
X39866700Y-33706302D01*
X33650000Y-56000000D02*
X36000000Y-56000000D01*
X32000000Y-58700000D02*
X32000000Y-57650000D01*
%TO.N,ChanB*%
X40516700Y-34056302D02*
X39073002Y-35500000D01*
X40516700Y-32092200D02*
X40516700Y-34056302D01*
X39073002Y-35500000D02*
X39000000Y-35500000D01*
X29460000Y-58700000D02*
X29460000Y-57650000D01*
X32110000Y-55000000D02*
X36000000Y-55000000D01*
X29460000Y-57650000D02*
X32110000Y-55000000D01*
%TO.N,Button*%
X35190000Y-57000000D02*
X36000000Y-57000000D01*
X34540000Y-57650000D02*
X35190000Y-57000000D01*
X34540000Y-58700000D02*
X34540000Y-57650000D01*
X39216700Y-33283300D02*
X39000000Y-33500000D01*
X39216700Y-32092200D02*
X39216700Y-33283300D01*
%TO.N,SWDIO*%
X42466700Y-36066700D02*
X42200000Y-35800000D01*
X42466700Y-37992200D02*
X42466700Y-36066700D01*
%TO.N,SWCLK*%
X43116700Y-36683300D02*
X43200000Y-36600000D01*
X43116700Y-37992200D02*
X43116700Y-36683300D01*
D31*
%TO.N,GND*%
X35205400Y-68733500D02*
X34728500Y-69210400D01*
X35205400Y-66159100D02*
X35205400Y-68733500D01*
D32*
X27796200Y-40217500D02*
X26553300Y-41460400D01*
X28750000Y-40217500D02*
X27796200Y-40217500D01*
X26146999Y-48570599D02*
X26353500Y-48777100D01*
X26197000Y-45856100D02*
X26146999Y-45906101D01*
X26146999Y-45906101D02*
X26146999Y-48570599D01*
D31*
X28283100Y-36029400D02*
X28562500Y-35750000D01*
X26553300Y-36029400D02*
X28283100Y-36029400D01*
X42836000Y-45006500D02*
X42836000Y-47292500D01*
X51250000Y-28200000D02*
X51250000Y-27617000D01*
X59975000Y-34260000D02*
X62831500Y-34260000D01*
D32*
X33950000Y-39582500D02*
X35172120Y-39582500D01*
X35172120Y-39582500D02*
X35631820Y-40042200D01*
%TO.N,VCC*%
X40516700Y-39692200D02*
X40166700Y-40042200D01*
X40516700Y-37992200D02*
X40516700Y-39692200D01*
D31*
X24251400Y-69667600D02*
X24251400Y-71711300D01*
X24251400Y-73739500D02*
X24247600Y-73743300D01*
X24251400Y-71711300D02*
X24251400Y-73739500D01*
D30*
X28843900Y-44906100D02*
X29037800Y-45100000D01*
X27107000Y-44906100D02*
X28843900Y-44906100D01*
D32*
%TO.N,GND*%
X30400000Y-29671000D02*
X29972000Y-30099000D01*
X30400000Y-28300000D02*
X30400000Y-29671000D01*
X35631820Y-40042200D02*
X37173800Y-40042200D01*
X38291700Y-37337198D02*
X38291700Y-40042200D01*
X38711699Y-36917199D02*
X38291700Y-37337198D01*
X39816699Y-36917199D02*
X38711699Y-36917199D01*
X39866700Y-36967200D02*
X39816699Y-36917199D01*
X39866700Y-37992200D02*
X39866700Y-36967200D01*
X43927000Y-45006500D02*
X43942000Y-45021500D01*
X42836000Y-45006500D02*
X43927000Y-45006500D01*
X43927000Y-47292500D02*
X43942000Y-47307500D01*
X42836000Y-47292500D02*
X43927000Y-47292500D01*
X26553300Y-42344200D02*
X25971500Y-42926000D01*
X26553300Y-41460400D02*
X26553300Y-42344200D01*
X25971500Y-45630600D02*
X25971500Y-42926000D01*
X26197000Y-45856100D02*
X25971500Y-45630600D01*
X27107000Y-45856100D02*
X26197000Y-45856100D01*
X29696000Y-40217500D02*
X30289500Y-39624000D01*
X28750000Y-40217500D02*
X29696000Y-40217500D01*
D31*
X51250000Y-27617000D02*
X51250000Y-22410000D01*
X51250000Y-22410000D02*
X51250000Y-21900000D01*
X42177700Y-67486800D02*
X42164000Y-67500500D01*
X42177700Y-66146400D02*
X42177700Y-67486800D01*
X30201600Y-67412600D02*
X30226000Y-67437000D01*
X30201600Y-66121000D02*
X30201600Y-67412600D01*
D30*
X35810000Y-59876500D02*
X36385500Y-60452000D01*
X35810000Y-58700000D02*
X35810000Y-59876500D01*
D31*
X64038000Y-34260000D02*
X65025000Y-34260000D01*
X62831500Y-34260000D02*
X64038000Y-34260000D01*
X35206000Y-31650000D02*
X35242500Y-31686500D01*
X33937500Y-31650000D02*
X35206000Y-31650000D01*
X45300000Y-40918500D02*
X45339000Y-40957500D01*
X45300000Y-39637500D02*
X45300000Y-40918500D01*
D32*
X37173800Y-40042200D02*
X38291700Y-40042200D01*
D31*
X28562500Y-35166500D02*
X27749500Y-34353500D01*
X28562500Y-35750000D02*
X28562500Y-35166500D01*
D32*
X47419500Y-27622500D02*
X48768000Y-27622500D01*
%TO.N,VCC*%
X40516700Y-36318300D02*
X40640000Y-36195000D01*
X40516700Y-37992200D02*
X40516700Y-36318300D01*
X29037800Y-43515800D02*
X29019500Y-43497500D01*
X29037800Y-45100000D02*
X29037800Y-43515800D01*
X27107000Y-43568500D02*
X27114500Y-43561000D01*
X27107000Y-44906100D02*
X27107000Y-43568500D01*
D31*
X24251400Y-68077600D02*
X24257000Y-68072000D01*
X24251400Y-69667600D02*
X24251400Y-68077600D01*
X24247600Y-75428600D02*
X24257000Y-75438000D01*
X24247600Y-73743300D02*
X24247600Y-75428600D01*
D30*
X28190000Y-51629500D02*
X28194000Y-51625500D01*
X28190000Y-53300000D02*
X28190000Y-51629500D01*
%TD*%
M02*
